<svg width="50" height="50" viewBox="0 0 50 50" fill="none" xmlns="http://www.w3.org/2000/svg">
<g clip-path="url(#clip0_122611_1500)">
<path d="M50.0303 25C50.0303 31.6777 47.4268 37.9561 42.6982 42.6777C37.9717 47.3994 31.6855 50 25 50C18.3145 50 12.0283 47.3994 7.30078 42.6777C2.57324 37.9561 -0.0302734 31.6777 -0.0302734 25C-0.0302734 18.3223 2.57324 12.0439 7.30078 7.32227C12.0283 2.60059 18.3145 0 25 0C25.4316 0 25.7812 0.349609 25.7812 0.78125C25.7812 1.21289 25.4316 1.5625 25 1.5625C12.0596 1.5625 1.53223 12.0762 1.53223 25C1.53223 37.9238 12.0596 48.4375 25 48.4375C37.9404 48.4375 48.4678 37.9238 48.4678 25C48.4678 19.6963 46.6846 14.6064 43.415 10.4785L43.2109 12.5381C43.1709 12.9414 42.8311 13.2422 42.4346 13.2422C42.4092 13.2422 42.3828 13.2412 42.3564 13.2383C41.9268 13.1953 41.6133 12.8125 41.6562 12.3838L42.0439 8.47754C42.0645 8.27148 42.166 8.08203 42.3262 7.9502C42.4863 7.81934 42.6924 7.75684 42.8984 7.77734L46.8096 8.16797C47.2393 8.21094 47.5527 8.59375 47.5098 9.02246C47.4668 9.45215 47.083 9.76367 46.6553 9.72266L44.6514 9.52246C48.1328 13.9229 50.0303 19.3477 50.0303 25ZM28.0811 43.4756C28.125 43.4756 28.1699 43.4717 28.2148 43.4639C32.5186 42.7207 36.4551 40.4717 39.2988 37.1309C42.1758 33.751 43.7607 29.4424 43.7607 24.999C43.7607 14.667 35.3447 6.26074 25 6.26074C20.5527 6.26074 16.2393 7.84375 12.8555 10.7168C9.50977 13.5586 7.25781 17.4902 6.51367 21.7881C6.44043 22.2129 6.72461 22.6172 7.15039 22.6914C7.5752 22.7646 7.97949 22.4805 8.05371 22.0547C8.63086 18.7207 10.1406 15.7559 12.2881 13.4072L14.1768 15.293C14.3291 15.4453 14.5293 15.5215 14.7285 15.5215C14.9287 15.5215 15.1289 15.4453 15.2812 15.292C15.5859 14.9863 15.5859 14.4922 15.2803 14.1875L13.3936 12.3037C16.2881 9.66699 20.0791 8.02539 24.2188 7.8418V10.4922C24.2188 10.9238 24.5684 11.2734 25 11.2734C25.4316 11.2734 25.7812 10.9238 25.7812 10.4922V7.84277C29.9346 8.0293 33.71 9.69336 36.5898 12.3213L34.7197 14.1885C34.4141 14.4932 34.4141 14.9883 34.7188 15.293C34.8711 15.4453 35.0713 15.5225 35.2715 15.5225C35.4717 15.5225 35.6709 15.4463 35.8232 15.2939L37.6953 13.4248C40.3262 16.3008 41.9932 20.0703 42.1807 24.2188H39.5273C39.0957 24.2188 38.7461 24.5684 38.7461 25C38.7461 25.4316 39.0957 25.7812 39.5273 25.7812H42.1826C41.998 29.915 40.3545 33.7012 37.7129 36.5918L35.8252 34.708C35.5195 34.4033 35.0254 34.4043 34.7207 34.709C34.416 35.0146 34.417 35.5088 34.7217 35.8135L36.6074 37.6953C34.2559 39.8398 31.2881 41.3467 27.9502 41.9229C27.5254 41.9961 27.2402 42.4004 27.3135 42.8252C27.3779 43.207 27.708 43.4756 28.0811 43.4756ZM14.2891 30.9473L13.6709 31.5762C14.8203 33.5479 16.4453 35.1709 18.416 36.3154L19.0459 35.6982C19.5977 35.1592 20.3447 34.9453 21.0947 35.1084L24.0059 35.7334C25.0518 35.958 25.7812 36.8613 25.7812 37.9287V41.4307C25.7812 42.0752 25.5293 42.6475 25.0518 43.0859C24.6289 43.4746 24.1104 43.6768 23.5439 43.6768C23.4756 43.6768 23.4062 43.6738 23.3369 43.668C23.3359 43.668 23.335 43.668 23.334 43.668C18.9648 43.2842 14.8457 41.3604 11.7334 38.252C8.62109 35.1436 6.69531 31.0283 6.31055 26.665C6.25586 26.0195 6.45703 25.4277 6.8916 24.9512C7.33301 24.4727 7.90527 24.2207 8.54883 24.2207H12.0547C13.123 24.2207 14.0264 24.9502 14.251 25.9941L14.877 28.9033C15.042 29.6514 14.8271 30.3975 14.2891 30.9473ZM12.0137 31.8086C11.8555 31.5078 11.9092 31.1387 12.1475 30.8965L13.1729 29.8525C13.3457 29.6768 13.4043 29.4727 13.3516 29.2314L12.7246 26.3213C12.6553 25.998 12.3857 25.7812 12.0557 25.7812H8.5498C8.3457 25.7812 8.18457 25.8525 8.04395 26.0059C7.90527 26.1572 7.85059 26.3193 7.86816 26.5283C8.59961 34.8242 15.1621 41.3779 23.4717 42.1094C23.6777 42.126 23.8457 42.0703 23.9951 41.9336C24.1504 41.791 24.2197 41.6357 24.2197 41.4287V37.9268C24.2197 37.5977 24.002 37.3291 23.6777 37.2598L20.7646 36.6338C20.5244 36.582 20.3145 36.6426 20.1387 36.8135L19.0947 37.8369C18.8525 38.0742 18.4844 38.1279 18.1846 37.9707C15.542 36.584 13.4082 34.4531 12.0137 31.8086ZM21.4688 24.1885C19.8516 24.1885 18.5371 25.5029 18.5371 27.1182V29.4102C18.5371 29.8418 18.8867 30.1914 19.3184 30.1914H23.6201C24.0518 30.1914 24.4014 29.8418 24.4014 29.4102C24.4014 28.9785 24.0518 28.6289 23.6201 28.6289H20.0996V27.1182C20.0996 26.3643 20.7139 25.751 21.4688 25.751C23.1406 25.751 24.4004 24.4287 24.4004 22.6748C24.4004 21.0596 23.085 19.7451 21.4688 19.7451H19.3184C18.8867 19.7451 18.5371 20.0947 18.5371 20.5264C18.5371 20.958 18.8867 21.3076 19.3184 21.3076H21.4688C22.2236 21.3076 22.8379 21.9209 22.8379 22.6748C22.8389 23.4277 22.415 24.1885 21.4688 24.1885ZM26.3584 25.751H29.9648V29.4102C29.9648 29.8418 30.3145 30.1914 30.7461 30.1914C31.1777 30.1914 31.5273 29.8418 31.5273 29.4102V20.5273C31.5273 20.0957 31.1777 19.7461 30.7461 19.7461C30.3145 19.7461 29.9648 20.0957 29.9648 20.5273V24.1895H27.3691L28.2705 20.7246C28.3789 20.3066 28.1289 19.8809 27.7109 19.7715C27.2939 19.6631 26.8672 19.9131 26.7578 20.3311L25.6025 24.7744C25.542 25.0088 25.5928 25.2578 25.7402 25.4492C25.8877 25.6387 26.1162 25.751 26.3584 25.751Z" fill="white"/>
</g>
<defs>
<clipPath id="clip0_122611_1500">
<rect width="50" height="50" fill="white"/>
</clipPath>
</defs>
</svg>
