<svg width="96" height="32" viewBox="0 0 96 32" fill="none" xmlns="http://www.w3.org/2000/svg">
<g clip-path="url(#clip0_122608_1442)">
<path d="M88.3008 0H6.01504C5.45363 0 4.97243 0.08 4.41103 0.16C3.92982 0.24 3.36842 0.4 2.88722 0.64C2.40602 0.88 2.00501 1.2 1.60401 1.6C1.20301 2 0.882206 2.4 0.641604 2.88C0.401003 3.36 0.240602 3.92 0.160401 4.4C0.0802005 4.96 0 5.52 0 6V25.92C0 26.48 0.0802005 26.96 0.160401 27.52C0.240602 28.08 0.401003 28.56 0.641604 29.04C0.882206 29.6 1.20301 30 1.60401 30.4C2.00501 30.8 2.40602 31.12 2.88722 31.36C3.36842 31.6 3.84962 31.76 4.41103 31.84C4.97243 31.92 5.45363 32 6.01504 32H89.9048C90.4662 32 90.9474 31.92 91.5088 31.84C92.0702 31.76 92.5514 31.6 93.0326 31.36C93.5138 31.12 93.9148 30.8 94.3158 30.4C94.7168 30 95.0376 29.6 95.2782 29.12C95.5188 28.64 95.6792 28.16 95.7594 27.6C95.8396 27.04 95.9198 26.56 95.9198 26V25.28V7.6V6.72V6C95.9198 5.44 95.8396 4.96 95.7594 4.4C95.6792 3.84 95.5188 3.36 95.2782 2.88C94.797 1.92 93.995 1.12 93.0326 0.64C92.5514 0.4 92.0702 0.24 91.5088 0.16C90.9474 0.08 90.4662 0 89.9048 0H88.3008V0Z" fill="#A6A6A6"/>
<path d="M6.73684 31.2802H6.01504C5.53383 31.2802 4.97243 31.2002 4.49123 31.1202C4.01002 31.0402 3.60902 30.8802 3.12782 30.7202C2.72681 30.4802 2.32581 30.2402 2.00501 29.9202C1.68421 29.6002 1.36341 29.2002 1.20301 28.8002C0.962404 28.4002 0.882203 27.9202 0.802003 27.4402C0.721802 26.9602 0.641602 26.4802 0.641602 25.9202V6.72021V6.00022C0.641602 5.52022 0.721802 4.96021 0.802003 4.48021C0.882203 4.08021 1.0426 3.60021 1.28321 3.20021C1.52381 2.80021 1.76441 2.40021 2.08521 2.08021C2.40601 1.76021 2.80702 1.52021 3.20802 1.28021C3.60902 1.04021 4.09022 0.960215 4.57143 0.880215C5.05263 0.800215 5.53383 0.720215 6.09524 0.720215H89.985C90.4662 0.720215 90.9474 0.800215 91.5088 0.880215C91.99 0.960215 92.391 1.12021 92.8722 1.28021C93.6742 1.68021 94.396 2.40021 94.797 3.20021C95.0376 3.60021 95.1178 4.08021 95.198 4.48021C95.2782 4.96021 95.3584 5.52022 95.3584 6.00022V25.9202C95.3584 26.4002 95.2782 26.8802 95.198 27.4402C95.1178 27.9202 94.9574 28.3202 94.797 28.8002C94.5564 29.2002 94.3158 29.6002 93.995 29.9202C93.6742 30.2402 93.2732 30.5602 92.8722 30.7202C92.4712 30.9602 91.99 31.1202 91.5088 31.1202C91.0276 31.2002 90.5464 31.2802 89.985 31.2802H6.73684Z" fill="black"/>
<path d="M19.8898 16.24C19.8898 14.88 20.6116 13.6 21.8146 12.88C21.0928 11.84 19.8898 11.2 18.6066 11.12C17.2432 10.96 15.9599 11.92 15.2381 11.92C14.5163 11.92 13.4737 11.12 12.3509 11.12C10.8271 11.2 9.4637 12 8.7419 13.28C7.21809 15.92 8.34089 19.92 9.8647 22.08C10.5865 23.12 11.4687 24.32 12.5915 24.32C13.7143 24.24 14.1153 23.6 15.4787 23.6C16.8421 23.6 17.1629 24.32 18.366 24.32C19.569 24.32 20.2908 23.28 21.0126 22.16C21.574 21.44 21.975 20.56 22.2156 19.68C20.772 19.2 19.8898 17.76 19.8898 16.24ZM17.6442 9.75996C18.2858 8.95996 18.6066 7.99996 18.5264 6.95996C17.564 7.03996 16.6015 7.51996 15.9599 8.31996C15.3183 9.03996 14.9975 9.99996 15.0777 11.04C16.1203 11.04 17.0025 10.56 17.6442 9.75996ZM33.9249 21.68H30.1554L29.2732 24.4H27.6692L31.2782 14.48H32.8822L36.4913 24.4H34.8873L33.9249 21.68ZM30.5564 20.48H33.6041L32.0802 16.08H32L30.5564 20.48ZM44.2707 20.8C44.2707 23.04 43.0677 24.48 41.2231 24.48C40.2607 24.56 39.3785 24 38.9775 23.2V26.8H37.4537V17.2H38.8973V18.4C39.3785 17.6 40.2607 17.12 41.2231 17.12C42.9875 17.04 44.2707 18.56 44.2707 20.8ZM42.6667 20.8C42.6667 19.36 41.9449 18.4 40.7419 18.4C39.6191 18.4 38.8171 19.36 38.8171 20.8C38.8171 22.24 39.6191 23.2 40.7419 23.2C41.9449 23.2 42.6667 22.24 42.6667 20.8ZM52.2106 20.8C52.2106 23.04 51.0076 24.48 49.1629 24.48C48.2005 24.56 47.3183 24 46.9173 23.2V26.8H45.3935V17.2H46.8371V18.4C47.3183 17.6 48.2005 17.12 49.1629 17.12C51.0076 17.04 52.2106 18.56 52.2106 20.8ZM50.6868 20.8C50.6868 19.36 49.965 18.4 48.7619 18.4C47.6391 18.4 46.8371 19.36 46.8371 20.8C46.8371 22.24 47.6391 23.2 48.7619 23.2C49.965 23.2 50.6868 22.24 50.6868 20.8ZM57.5038 21.6C57.584 22.56 58.5464 23.2 59.9098 23.2C61.193 23.2 62.0752 22.56 62.0752 21.68C62.0752 20.88 61.5138 20.48 60.2306 20.16L58.9474 19.84C57.1028 19.44 56.3008 18.56 56.3008 17.2C56.3008 15.52 57.8246 14.32 59.9098 14.32C61.995 14.32 63.4386 15.52 63.5188 17.2H61.995C61.9148 16.24 61.1128 15.6 59.9098 15.6C58.7068 15.6 57.9048 16.24 57.9048 17.12C57.9048 17.84 58.4662 18.24 59.7494 18.56L60.8722 18.8C62.8772 19.28 63.7594 20.08 63.7594 21.52C63.7594 23.36 62.3158 24.56 59.9098 24.56C57.6642 24.56 56.2206 23.44 56.1404 21.6H57.5038ZM66.8071 15.44V17.12H68.1705V18.32H66.8071V22.32C66.8071 22.96 67.0477 23.2 67.6893 23.2H68.1705V24.4C67.9299 24.48 67.6091 24.48 67.3685 24.48C65.9249 24.48 65.3635 23.92 65.3635 22.56V18.4H64.3208V17.2H65.3635V15.52H66.8071V15.44ZM69.0527 20.8C69.0527 18.56 70.4161 17.12 72.5013 17.12C74.5865 17.12 75.9499 18.56 75.9499 20.8C75.9499 23.12 74.5865 24.48 72.5013 24.48C70.3359 24.48 69.0527 23.04 69.0527 20.8ZM74.4261 20.8C74.4261 19.2 73.7043 18.32 72.5013 18.32C71.2983 18.32 70.5765 19.2 70.5765 20.8C70.5765 22.4 71.2983 23.28 72.5013 23.28C73.7043 23.28 74.4261 22.32 74.4261 20.8ZM77.1529 17.12H78.5965V18.4C78.7569 17.6 79.5589 17.04 80.3609 17.12C80.5213 17.12 80.6818 17.12 80.8422 17.2V18.56C80.6016 18.48 80.3609 18.48 80.2005 18.48C79.3985 18.48 78.6767 19.12 78.6767 19.92V24.48H77.1529V17.12ZM87.7394 22.24C87.579 23.52 86.2958 24.48 84.6116 24.48C82.5264 24.48 81.163 23.04 81.163 20.8C81.163 18.56 82.4462 17.04 84.5314 17.04C86.5364 17.04 87.8196 18.4 87.8196 20.64V21.12H82.6868V21.2C82.6066 22.24 83.3284 23.12 84.371 23.28H84.6116C85.3334 23.36 86.0552 22.96 86.2958 22.24H87.7394ZM82.6868 20.08H86.2958C86.376 19.12 85.574 18.32 84.6116 18.24H84.4512C83.4888 18.24 82.6868 19.04 82.6868 20.08Z" fill="white"/>
<path d="M30.3157 6.96022C31.5187 6.88022 32.4811 7.76022 32.5613 8.88022V9.28022C32.5613 10.8002 31.7593 11.6802 30.3157 11.6802H28.5513V6.88022L30.3157 6.96022ZM29.3533 11.1202H30.2355C31.0375 11.2002 31.7593 10.5602 31.8395 9.68022V9.36021C31.9197 8.56021 31.3583 7.76022 30.5563 7.68022H29.3533V11.1202ZM33.4435 9.92021C33.3633 8.96021 34.0851 8.16022 34.9673 8.08022C35.9297 8.00022 36.7317 8.72022 36.8119 9.60022V9.92021C36.8921 10.8802 36.2505 11.6802 35.2881 11.7602C34.3257 11.8402 33.5237 11.2002 33.4435 10.2402V9.92021ZM36.0901 9.92021C36.0901 9.12021 35.7693 8.72021 35.1277 8.72021C34.4861 8.72021 34.1653 9.20021 34.1653 9.92021C34.1653 10.7202 34.4861 11.2002 35.1277 11.2002C35.7693 11.2002 36.0901 10.7202 36.0901 9.92021ZM41.3834 11.7602H40.6615L39.9397 9.12021H39.8595L39.1377 11.7602H38.4159L37.4535 8.16022H38.1753L38.8169 10.8802H38.8971L39.6189 8.16022H40.3407L41.0626 10.8802H41.1427L41.7844 8.16022H42.5062L41.3834 11.7602ZM43.228 8.16022H43.9498V8.72021H44.03C44.1904 8.32021 44.6716 8.08022 45.0726 8.08022C45.7142 8.00022 46.2756 8.48022 46.3558 9.20022V11.7602H45.634V9.60022C45.634 9.04022 45.3934 8.72021 44.832 8.72021C44.3508 8.72021 43.9498 9.04021 43.9498 9.52021V11.7602H43.228V8.16022ZM47.3984 6.72021H48.1202V11.7602H47.3984V6.72021ZM49.0826 9.92021C49.0024 8.96021 49.644 8.16022 50.6064 8.08022C51.5688 8.00022 52.3708 8.64022 52.451 9.60022V9.92021C52.5312 10.8802 51.8896 11.6802 50.9272 11.7602C49.9648 11.8402 49.1628 11.2002 49.0826 10.2402V9.92021ZM51.8094 9.92021C51.8094 9.12021 51.4886 8.72021 50.847 8.72021C50.2054 8.72021 49.8846 9.20021 49.8846 9.92021C49.8846 10.7202 50.2054 11.2002 50.847 11.2002C51.4084 11.2002 51.8094 10.7202 51.8094 9.92021ZM53.253 10.7202C53.253 10.0802 53.7342 9.68022 54.6164 9.68022L55.5788 9.60022V9.28022C55.5788 8.88022 55.3382 8.72021 54.857 8.72021C54.456 8.72021 54.2154 8.88021 54.1352 9.12021H53.4134C53.4936 8.48021 54.055 8.08022 54.857 8.08022C55.7392 8.08022 56.3006 8.56022 56.3006 9.28022V11.7602H55.5788V11.2802H55.4986C55.258 11.6802 54.857 11.8402 54.3758 11.8402C53.8144 11.9202 53.253 11.4402 53.1728 10.8802C53.253 10.8002 53.253 10.8002 53.253 10.7202ZM55.5788 10.4002V10.0802L54.6966 10.1602C54.2154 10.1602 53.9748 10.4002 53.9748 10.6402C53.9748 10.9602 54.2956 11.1202 54.6164 11.1202C55.0976 11.2802 55.4986 10.9602 55.5788 10.4002C55.5788 10.4802 55.5788 10.4802 55.5788 10.4002ZM57.1829 9.92021C57.1829 8.80022 57.7443 8.08022 58.7067 8.08022C59.1879 8.08022 59.5889 8.32021 59.8295 8.72021H59.9097V6.72021H60.6315V11.7602H59.9097V11.2002H59.8295C59.5889 11.6002 59.1879 11.8402 58.7067 11.8402C57.8245 11.8402 57.1829 11.1202 57.1829 9.92021ZM57.9849 9.92021C57.9849 10.7202 58.3057 11.1202 58.9473 11.1202C59.5889 11.1202 59.9097 10.6402 59.9097 9.92021C59.9097 9.20021 59.5087 8.72021 58.9473 8.72021C58.3057 8.72021 57.9849 9.20021 57.9849 9.92021ZM63.5187 9.92021C63.4385 8.96021 64.0801 8.16022 65.0425 8.08022C66.0049 8.00022 66.8069 8.64022 66.8871 9.60022V9.92021C66.9673 10.8802 66.3257 11.6802 65.3633 11.7602C64.4009 11.8402 63.5989 11.2002 63.5187 10.2402V9.92021ZM66.2455 9.92021C66.2455 9.12021 65.9247 8.72021 65.2831 8.72021C64.6415 8.72021 64.3207 9.20021 64.3207 9.92021C64.3207 10.7202 64.6415 11.2002 65.2831 11.2002C65.8445 11.2002 66.2455 10.7202 66.2455 9.92021ZM67.9297 8.16022H68.6515V8.72021H68.7317C68.8921 8.32021 69.3733 8.08022 69.7743 8.08022C70.4159 8.00022 70.9773 8.48022 71.0575 9.20022V11.7602H70.3357V9.60022C70.3357 9.04022 70.0951 8.72021 69.5337 8.72021C69.0525 8.72021 68.6515 9.04021 68.6515 9.52021V11.7602H67.9297V8.16022ZM74.9874 7.28022V8.16022H75.7894V8.80022H74.9874V10.6402C74.9874 11.0402 75.1478 11.2002 75.4686 11.2002H75.7092V11.7602H75.3082C74.5062 11.7602 74.1854 11.5202 74.1854 10.8002V8.80022H73.624V8.24022H74.1854V7.28022H74.9874ZM76.7518 6.72021H77.4736V8.72021H77.5538C77.7142 8.32021 78.1954 8.00022 78.6766 8.08022C79.3182 8.08022 79.8796 8.56022 79.9598 9.20022V11.7602H79.238V9.60022C79.238 9.04022 78.9974 8.72021 78.436 8.72021C77.9548 8.72021 77.5538 9.04021 77.5538 9.52021V11.7602H76.832V6.72021H76.7518ZM84.05 10.8002C83.8896 11.4402 83.1678 11.9202 82.5262 11.8402C81.644 11.8402 80.842 11.1202 80.842 10.2402V10.0002C80.6816 9.12022 81.3232 8.24022 82.2856 8.16022H82.5262C83.5688 8.16022 84.1302 8.88022 84.1302 10.0002V10.2402H81.5638V10.3202C81.4836 10.8802 81.8846 11.2802 82.446 11.3602H82.5262C82.847 11.4402 83.248 11.2002 83.4084 10.9602H84.05V10.8002ZM81.4836 9.60022H83.3282C83.3282 9.12022 83.0074 8.72022 82.5262 8.64022H82.446C81.9648 8.72022 81.4836 9.12022 81.4836 9.60022Z" fill="white"/>
</g>
<defs>
<clipPath id="clip0_122608_1442">
<rect width="96" height="32" fill="white"/>
</clipPath>
</defs>
</svg>
