<svg width="108" height="32" viewBox="0 0 108 32" fill="none" xmlns="http://www.w3.org/2000/svg">
<g clip-path="url(#clip0_122608_1448)">
<path d="M104 32H4C1.76 32 0 30.24 0 28V4C0 1.76 1.76 0 4 0H104C106.24 0 108 1.76 108 4V28C108 30.24 106.24 32 104 32Z" fill="black"/>
<path d="M104 0.64C105.84 0.64 107.36 2.16 107.36 4V28C107.36 29.84 105.84 31.36 104 31.36H4C2.16 31.36 0.64 29.84 0.64 28V4C0.64 2.16 2.16 0.64 4 0.64H104ZM104 0H4C1.76 0 0 1.84 0 4V28C0 30.24 1.76 32 4 32H104C106.24 32 108 30.24 108 28V4C108 1.84 106.24 0 104 0Z" fill="#A6A6A6"/>
<path d="M37.9201 8.16002C37.9201 8.80002 37.7601 9.36002 37.3601 9.76002C36.8801 10.24 36.3201 10.48 35.6001 10.48C34.8801 10.48 34.3201 10.24 33.8401 9.76002C33.3601 9.28002 33.1201 8.72002 33.1201 8.00002C33.1201 7.28002 33.3601 6.72002 33.8401 6.24002C34.3201 5.76002 34.8801 5.52002 35.6001 5.52002C35.9201 5.52002 36.2401 5.60002 36.5601 5.76002C36.8801 5.92002 37.1201 6.08002 37.2801 6.32002L36.8801 6.72002C36.5601 6.32002 36.1601 6.16002 35.6001 6.16002C35.1201 6.16002 34.6401 6.32002 34.3201 6.72002C33.9201 7.04002 33.7601 7.52002 33.7601 8.08002C33.7601 8.64002 33.9201 9.12002 34.3201 9.44002C34.7201 9.76002 35.1201 10 35.6001 10C36.1601 10 36.5601 9.84002 36.9601 9.44002C37.2001 9.20002 37.3601 8.88002 37.3601 8.48002H35.6001V7.84002H37.9201V8.16002ZM41.6001 6.16002H39.4401V7.68002H41.4401V8.24002H39.4401V9.76002H41.6001V10.4H38.8001V5.60002H41.6001V6.16002ZM44.2401 10.4H43.6001V6.16002H42.2401V5.60002H45.6001V6.16002H44.2401V10.4ZM47.9201 10.4V5.60002H48.5601V10.4H47.9201ZM51.2801 10.4H50.6401V6.16002H49.2801V5.60002H52.5601V6.16002H51.2001L51.2801 10.4ZM58.8801 9.76002C58.4001 10.24 57.8401 10.48 57.1201 10.48C56.4001 10.48 55.8401 10.24 55.3601 9.76002C54.8801 9.28002 54.6401 8.72002 54.6401 8.00002C54.6401 7.28002 54.8801 6.72002 55.3601 6.24002C55.8401 5.76002 56.4001 5.52002 57.1201 5.52002C57.8401 5.52002 58.4001 5.76002 58.8801 6.24002C59.3601 6.72002 59.6001 7.28002 59.6001 8.00002C59.6001 8.72002 59.3601 9.28002 58.8801 9.76002ZM55.8401 9.36002C56.1601 9.68002 56.6401 9.92002 57.1201 9.92002C57.6001 9.92002 58.0801 9.76002 58.4001 9.36002C58.7201 9.04002 58.9601 8.56002 58.9601 8.00002C58.9601 7.44002 58.8001 6.96002 58.4001 6.64002C58.0801 6.32002 57.6001 6.08002 57.1201 6.08002C56.6401 6.08002 56.1601 6.24002 55.8401 6.64002C55.5201 6.96002 55.2801 7.44002 55.2801 8.00002C55.2801 8.56002 55.4401 9.04002 55.8401 9.36002ZM60.4801 10.4V5.60002H61.2001L63.5201 9.36002V5.60002H64.1601V10.4H63.5201L61.0401 6.48002V10.4H60.4801Z" fill="white" stroke="white" stroke-width="0.2" stroke-miterlimit="10"/>
<path d="M54.4799 17.4402C52.5599 17.4402 51.0399 18.8802 51.0399 20.8802C51.0399 22.8002 52.5599 24.3202 54.4799 24.3202C56.3999 24.3202 57.9199 22.8802 57.9199 20.8802C57.9199 18.8002 56.3999 17.4402 54.4799 17.4402ZM54.4799 22.8802C53.4399 22.8802 52.5599 22.0002 52.5599 20.8002C52.5599 19.6002 53.4399 18.7202 54.4799 18.7202C55.5199 18.7202 56.3999 19.5202 56.3999 20.8002C56.3999 22.0002 55.5199 22.8802 54.4799 22.8802ZM47.0399 17.4402C45.1199 17.4402 43.5999 18.8802 43.5999 20.8802C43.5999 22.8002 45.1199 24.3202 47.0399 24.3202C48.9599 24.3202 50.4799 22.8802 50.4799 20.8802C50.4799 18.8002 48.9599 17.4402 47.0399 17.4402ZM47.0399 22.8802C45.9999 22.8802 45.1199 22.0002 45.1199 20.8002C45.1199 19.6002 45.9999 18.7202 47.0399 18.7202C48.0799 18.7202 48.9599 19.5202 48.9599 20.8002C48.9599 22.0002 48.0799 22.8802 47.0399 22.8802ZM38.1599 18.4802V19.9202H41.5999C41.5199 20.7202 41.1999 21.3602 40.7999 21.7602C40.3199 22.2402 39.5199 22.8002 38.1599 22.8002C35.9999 22.8002 34.3999 21.1202 34.3999 18.9602C34.3999 16.8002 36.0799 15.1202 38.1599 15.1202C39.2799 15.1202 40.1599 15.6002 40.7999 16.1602L41.8399 15.1202C40.9599 14.3202 39.8399 13.6802 38.2399 13.6802C35.3599 13.6802 32.8799 16.0802 32.8799 18.9602C32.8799 21.8402 35.3599 24.2402 38.2399 24.2402C39.8399 24.2402 40.9599 23.7602 41.9199 22.7202C42.8799 21.7602 43.1999 20.4002 43.1999 19.3602C43.1999 19.0402 43.1999 18.7202 43.1199 18.4802H38.1599ZM74.4799 19.6002C74.1599 18.8002 73.3599 17.4402 71.5999 17.4402C69.8399 17.4402 68.3999 18.8002 68.3999 20.8802C68.3999 22.8002 69.8399 24.3202 71.7599 24.3202C73.2799 24.3202 74.2399 23.3602 74.5599 22.8002L73.4399 22.0002C73.0399 22.5602 72.5599 22.9602 71.7599 22.9602C70.9599 22.9602 70.4799 22.6402 70.0799 21.9202L74.6399 20.0002L74.4799 19.6002ZM69.8399 20.7202C69.8399 19.4402 70.8799 18.7202 71.5999 18.7202C72.1599 18.7202 72.7199 19.0402 72.8799 19.4402L69.8399 20.7202ZM66.0799 24.0002H67.5999V14.0002H66.0799V24.0002ZM63.6799 18.1602C63.2799 17.7602 62.6399 17.3602 61.8399 17.3602C60.1599 17.3602 58.5599 18.8802 58.5599 20.8002C58.5599 22.7202 60.0799 24.1602 61.8399 24.1602C62.6399 24.1602 63.2799 23.7602 63.5999 23.3602H63.6799V23.8402C63.6799 25.1202 62.9599 25.8402 61.8399 25.8402C60.9599 25.8402 60.3199 25.2002 60.1599 24.6402L58.8799 25.2002C59.2799 26.0802 60.2399 27.2002 61.9199 27.2002C63.6799 27.2002 65.1199 26.1602 65.1199 23.6802V17.6002H63.6799V18.1602ZM61.9199 22.8802C60.8799 22.8802 59.9999 22.0002 59.9999 20.8002C59.9999 19.6002 60.8799 18.7202 61.9199 18.7202C62.9599 18.7202 63.7599 19.6002 63.7599 20.8002C63.7599 22.0002 62.9599 22.8802 61.9199 22.8802ZM81.4399 14.0002H77.8399V24.0002H79.3599V20.2402H81.4399C83.1199 20.2402 84.7199 19.0402 84.7199 17.1202C84.7199 15.2002 83.1199 14.0002 81.4399 14.0002ZM81.5199 18.8002H79.3599V15.3602H81.5199C82.6399 15.3602 83.2799 16.3202 83.2799 17.0402C83.1999 17.9202 82.5599 18.8002 81.5199 18.8002ZM90.7199 17.3602C89.5999 17.3602 88.4799 17.8402 88.0799 18.8802L89.4399 19.4402C89.7599 18.8802 90.2399 18.7202 90.7999 18.7202C91.5999 18.7202 92.3199 19.2002 92.3999 20.0002V20.0802C92.1599 19.9202 91.5199 19.6802 90.8799 19.6802C89.4399 19.6802 87.9999 20.4802 87.9999 21.9202C87.9999 23.2802 89.1999 24.1602 90.4799 24.1602C91.5199 24.1602 91.9999 23.6802 92.3999 23.2002H92.4799V24.0002H93.9199V20.1602C93.7599 18.4002 92.3999 17.3602 90.7199 17.3602ZM90.5599 22.8802C90.0799 22.8802 89.3599 22.6402 89.3599 22.0002C89.3599 21.2002 90.2399 20.9602 90.9599 20.9602C91.5999 20.9602 91.9199 21.1202 92.3199 21.2802C92.1599 22.2402 91.3599 22.8802 90.5599 22.8802ZM98.9599 17.6002L97.2799 21.9202H97.1999L95.4399 17.6002H93.8399L96.4799 23.6802L94.9599 27.0402H96.4799L100.56 17.6002H98.9599ZM85.5199 24.0002H87.0399V14.0002H85.5199V24.0002Z" fill="white"/>
<path d="M8.32 6C8.08 6.24 8 6.64 8 7.12V24.8C8 25.28 8.16 25.68 8.4 25.92L8.48 26L18.4 16.08V15.92L8.32 6Z" fill="url(#paint0_linear_122608_1448)"/>
<path d="M21.5998 19.4401L18.3198 16.1601V15.9201L21.5998 12.6401L21.6798 12.7201L25.5998 14.9601C26.7198 15.6001 26.7198 16.6401 25.5998 17.2801L21.5998 19.4401Z" fill="url(#paint1_linear_122608_1448)"/>
<path d="M21.6798 19.36L18.3198 16L8.31982 26C8.71982 26.4 9.27982 26.4 9.99982 26.08L21.6798 19.36Z" fill="url(#paint2_linear_122608_1448)"/>
<path d="M21.6798 12.6398L9.99982 5.9998C9.27982 5.5998 8.71982 5.6798 8.31982 6.0798L18.3198 15.9998L21.6798 12.6398Z" fill="url(#paint3_linear_122608_1448)"/>
<path opacity="0.2" d="M21.5998 19.2798L9.99982 25.8398C9.35982 26.2398 8.79982 26.1598 8.39982 25.8398L8.31982 25.9198L8.39982 25.9998C8.79982 26.3198 9.35982 26.3998 9.99982 25.9998L21.5998 19.2798Z" fill="black"/>
<path opacity="0.12" d="M8.32 25.84C8.08 25.6 8 25.2 8 24.72V24.8C8 25.28 8.16 25.68 8.4 25.92V25.84H8.32ZM25.6 17.04L21.6 19.28L21.68 19.36L25.6 17.12C26.16 16.8 26.4 16.4 26.4 16C26.4 16.4 26.08 16.72 25.6 17.04Z" fill="black"/>
<path opacity="0.25" d="M10 6.07984L25.6 14.9598C26.08 15.2798 26.4 15.5998 26.4 15.9998C26.4 15.5998 26.16 15.1998 25.6 14.8798L10 6.07984C8.88 5.35984 8 5.83984 8 7.11984V7.19984C8 5.99984 8.88 5.43984 10 6.07984Z" fill="white"/>
</g>
<defs>
<linearGradient id="paint0_linear_122608_1448" x1="17.436" y1="6.964" x2="4.0096" y2="20.3896" gradientUnits="userSpaceOnUse">
<stop stop-color="#00A0FF"/>
<stop offset="0.007" stop-color="#00A1FF"/>
<stop offset="0.26" stop-color="#00BEFF"/>
<stop offset="0.512" stop-color="#00D2FF"/>
<stop offset="0.76" stop-color="#00DFFF"/>
<stop offset="1" stop-color="#00E3FF"/>
</linearGradient>
<linearGradient id="paint1_linear_122608_1448" x1="27.067" y1="16.0401" x2="7.70942" y2="16.0401" gradientUnits="userSpaceOnUse">
<stop stop-color="#FFE000"/>
<stop offset="0.409" stop-color="#FFBD00"/>
<stop offset="0.775" stop-color="#FFA500"/>
<stop offset="1" stop-color="#FF9C00"/>
</linearGradient>
<linearGradient id="paint2_linear_122608_1448" x1="19.8526" y1="17.828" x2="1.64622" y2="36.0344" gradientUnits="userSpaceOnUse">
<stop stop-color="#FF3A44"/>
<stop offset="1" stop-color="#C31162"/>
</linearGradient>
<linearGradient id="paint3_linear_122608_1448" x1="5.80862" y1="0.169397" x2="13.939" y2="8.2998" gradientUnits="userSpaceOnUse">
<stop stop-color="#32A071"/>
<stop offset="0.069" stop-color="#2DA771"/>
<stop offset="0.476" stop-color="#15CF74"/>
<stop offset="0.801" stop-color="#06E775"/>
<stop offset="1" stop-color="#00F076"/>
</linearGradient>
<clipPath id="clip0_122608_1448">
<rect width="108" height="32" fill="white"/>
</clipPath>
</defs>
</svg>
