<svg width="26" height="26" viewBox="0 0 26 26" fill="none" xmlns="http://www.w3.org/2000/svg">
<path d="M13 26C14.7072 26 16.3977 25.6637 17.9749 25.0104C19.5521 24.3571 20.9852 23.3996 22.1924 22.1924C23.3996 20.9852 24.3571 19.5521 25.0104 17.9749C25.6637 16.3977 26 14.7072 26 13C26 11.2928 25.6637 9.60235 25.0104 8.02512C24.3571 6.44788 23.3996 5.01477 22.1924 3.80761C20.9852 2.60045 19.5521 1.64288 17.9749 0.989566C16.3977 0.336255 14.7072 -2.5439e-08 13 0C9.55219 5.13764e-08 6.24558 1.36964 3.80761 3.80761C1.36964 6.24558 0 9.55219 0 13C0 16.4478 1.36964 19.7544 3.80761 22.1924C6.24558 24.6304 9.55219 26 13 26V26Z" fill="black"/>
<path d="M13.0005 19.1286V6.87207" stroke="white" stroke-width="1.5" stroke-linecap="round"/>
<path d="M19.1286 12.9993H6.87207" stroke="white" stroke-width="1.5" stroke-linecap="round"/>
</svg>
