<svg width="50" height="50" viewBox="0 0 50 50" fill="none" xmlns="http://www.w3.org/2000/svg">
<g clip-path="url(#clip0_122611_1489)">
<path d="M15.0605 29.2067C14.8501 29.1324 14.6349 29.0544 14.4203 28.9731V25.547C14.9596 25.6761 15.281 25.9487 15.3096 25.9736C15.6039 26.2402 16.0587 26.2202 16.3285 25.9277C16.5998 25.6336 16.5813 25.1752 16.2871 24.9039C16.2459 24.8659 15.5537 24.2422 14.4203 24.0722V23.3725C14.4203 22.9724 14.0959 22.6479 13.6958 22.6479C13.2957 22.6479 12.9713 22.9724 12.9713 23.3725V24.1278C12.8638 24.1515 12.7547 24.1787 12.6432 24.2124C11.6068 24.5246 10.8324 25.4116 10.6221 26.5272C10.4305 27.5444 10.7563 28.5253 11.4726 29.0871C11.8521 29.3848 12.3244 29.6574 12.9714 29.9454V34.2896C12.4117 34.2484 12.0241 34.1118 11.3888 33.6962C11.0539 33.4771 10.6048 33.571 10.3859 33.9059C10.1668 34.2407 10.2607 34.6897 10.5955 34.9088C11.5217 35.5146 12.1545 35.6953 12.9714 35.7413V36.5248C12.9714 36.9249 13.2958 37.2493 13.6959 37.2493C14.096 37.2493 14.4204 36.9249 14.4204 36.5248V35.6837C16.0459 35.3647 16.9954 34.0244 17.2059 32.7724C17.4763 31.1627 16.6343 29.7631 15.0605 29.2067ZM12.3666 27.947C12.0778 27.7203 11.9548 27.2792 12.0459 26.7956C12.1276 26.3623 12.4136 25.8417 12.9712 25.6312V28.3334C12.7437 28.21 12.5379 28.0813 12.3666 27.947ZM15.7767 32.5322C15.6652 33.1955 15.2033 33.8985 14.4202 34.1787V30.5167C14.4725 30.5354 14.5237 30.554 14.5775 30.573C15.9163 31.0462 15.8339 32.1922 15.7767 32.5322Z" fill="white"/>
<path d="M49.9601 28.2744C49.8354 27.7082 49.4363 27.2508 48.8922 27.0508L46.8185 26.2886C46.4431 26.1506 46.0266 26.3431 45.8885 26.7187C45.7505 27.0943 45.943 27.5107 46.3187 27.6487L48.3924 28.4109C48.5003 28.4505 48.5343 28.5375 48.5448 28.5857C48.5555 28.6339 48.5611 28.727 48.4797 28.8083L29.9685 47.3197C29.8869 47.4012 29.7938 47.3954 29.7457 47.3848C29.6975 47.3742 29.6106 47.3403 29.571 47.2322L26.9695 40.1541C26.798 39.6877 26.4322 39.322 25.9659 39.1506L18.888 36.5493C18.78 36.5095 18.7461 36.4227 18.7354 36.3745C18.7248 36.3262 18.7191 36.2332 18.8005 36.1518L37.3119 17.6405C37.3934 17.559 37.4862 17.5648 37.5346 17.5753C37.5828 17.586 37.6696 17.6199 37.7093 17.7279L40.3106 24.8058C40.482 25.2723 40.8479 25.638 41.3144 25.8094L43.1146 26.471C43.4901 26.6092 43.9065 26.4166 44.0445 26.041C44.1825 25.6654 43.99 25.249 43.6144 25.111L41.8141 24.4493C41.7476 24.4249 41.6953 24.3726 41.6709 24.306L39.0695 17.2281C38.8695 16.6839 38.4122 16.2848 37.8461 16.1602C37.2802 16.0355 36.6974 16.206 36.2873 16.6159L35.5865 17.3167V10.1286C35.5865 9.19644 34.8281 8.43804 33.896 8.43804H26.5167C27.1918 7.12554 26.9809 5.47144 25.8826 4.37329C24.9424 3.43306 23.5789 3.12417 22.3573 3.5148C21.8855 2.14624 20.5855 1.15991 19.0588 1.15991C17.5321 1.15991 16.2322 2.14604 15.7604 3.5144C14.5389 3.1231 13.1768 3.4314 12.2351 4.37319C11.5761 5.03208 11.2132 5.90815 11.2132 6.84009C11.2132 7.40532 11.3476 7.94976 11.5997 8.43794H10.9919C10.5918 8.43794 10.2674 8.76235 10.2674 9.16245C10.2674 9.56255 10.5918 9.88696 10.9919 9.88696H16.155V16.7443C15.3534 16.5984 14.5374 16.5229 13.717 16.5229C12.2068 16.5229 10.7857 16.7583 9.42578 17.2112L3.98027 17.2114V10.1285C3.98027 9.99526 4.08857 9.88696 4.22178 9.88696H7.525C7.9251 9.88696 8.24951 9.56255 8.24951 9.16245C8.24951 8.76235 7.9251 8.43794 7.525 8.43794H4.22158C3.28945 8.43794 2.53105 9.19634 2.53105 10.1285V22.2949C2.53105 22.2993 2.53164 22.3036 2.53174 22.3081C0.937988 24.5489 0 27.2869 0 30.2398C0 33.1861 0.924024 35.996 2.67217 38.366C2.81426 38.5585 3.0335 38.6604 3.25576 38.6604C3.40518 38.6604 3.55586 38.6144 3.68525 38.5189C4.00732 38.2814 4.07578 37.8278 3.83818 37.5057C2.2751 35.3868 1.44893 32.8742 1.44893 30.2397C1.44893 23.4752 6.95225 17.972 13.7167 17.972C19.3866 17.972 24.2607 21.7919 25.6229 27.28L24.3964 28.5066C24.0295 26.2287 22.9438 24.1307 21.26 22.4911C19.2268 20.5114 16.5479 19.421 13.7167 19.421C7.75127 19.421 2.89795 24.2743 2.89795 30.2397C2.89795 36.2051 7.75117 41.0584 13.7167 41.0584C16.1788 41.0584 18.5636 40.2158 20.4796 38.6781L22.0325 39.2488C19.775 41.3307 16.8004 42.5075 13.7167 42.5075C10.9179 42.5075 8.17832 41.5359 6.00273 39.7718C5.69199 39.5198 5.23574 39.5674 4.98369 39.8783C4.73164 40.1891 4.7793 40.6453 5.09014 40.8974C7.52295 42.8702 10.5866 43.9566 13.7167 43.9566C17.41 43.9566 20.9628 42.4479 23.5401 39.8029L25.466 40.5107C25.5326 40.5352 25.5849 40.5875 25.6093 40.6541L28.2106 47.732C28.4106 48.2761 28.868 48.6752 29.434 48.7999C29.5561 48.8267 29.6789 48.8399 29.8006 48.8399C30.2434 48.8399 30.6712 48.6658 30.9929 48.3442L49.5043 29.833C49.9142 29.4231 50.0846 28.8405 49.9601 28.2744ZM3.98008 20.5882V18.6606H6.37129C5.50322 19.2132 4.70137 19.8606 3.98008 20.5882ZM34.1374 10.1286V17.2115H21.9626V9.88706H33.8959C34.0291 9.88706 34.1374 9.99546 34.1374 10.1286ZM24.858 5.3979C25.6532 6.19321 25.6532 7.48726 24.8581 8.28237C24.8264 8.31421 24.7647 8.36694 24.6578 8.43804H21.1278C22.1795 6.45981 22.4521 5.49185 22.5226 5.00552C23.2987 4.62603 24.2364 4.77632 24.858 5.3979ZM19.0587 2.60894C20.1834 2.60894 21.0984 3.52397 21.0984 4.64858C21.0984 4.85796 20.9793 5.74585 19.4774 8.43794H18.64C17.1385 5.74653 17.019 4.85835 17.019 4.64858C17.019 3.52397 17.934 2.60894 19.0587 2.60894ZM13.2596 8.28247C12.8743 7.89722 12.6621 7.38501 12.6621 6.84019C12.6621 6.29536 12.8743 5.78315 13.2596 5.3979C13.8822 4.77524 14.8186 4.62583 15.5949 5.00591C15.6654 5.49243 15.9379 6.45991 16.9896 8.43804H13.4598C13.3528 8.36704 13.2914 8.31431 13.2596 8.28247ZM17.6038 9.88706H20.5136V17.2115H18.0049C18.0017 17.2115 17.9986 17.2119 17.9954 17.212C17.8655 17.1692 17.7349 17.129 17.6038 17.0901V9.88706ZM22.2897 19.539C21.8956 19.2227 21.4848 18.9298 21.0603 18.6606H34.1375V18.7657L31.3328 21.5704H24.3362C23.7294 20.8269 23.044 20.1445 22.2897 19.539ZM25.371 23.0194H29.8837L26.796 26.1071C26.4516 25.0227 25.9711 23.9848 25.371 23.0194ZM13.7168 39.6095C8.55029 39.6095 4.34717 35.4063 4.34717 30.2399C4.34717 25.0735 8.55039 20.8703 13.7168 20.8703C18.6905 20.8703 22.859 24.875 23.0768 29.8265L17.776 35.1273C17.3661 35.5372 17.1957 36.1199 17.3203 36.686C17.4449 37.2521 17.8441 37.7094 18.3882 37.9094L18.8449 38.0773C17.3276 39.0719 15.5468 39.6095 13.7168 39.6095Z" fill="white"/>
<path d="M35.5257 38.584C35.6169 38.584 35.7099 38.5666 35.7995 38.5299C36.1699 38.3785 36.3474 37.9555 36.196 37.5851L32.0243 27.3796C31.873 27.0093 31.4501 26.8315 31.0795 26.9831C30.7091 27.1345 30.5315 27.5575 30.683 27.9279L34.8547 38.1334C34.9694 38.4141 35.24 38.584 35.5257 38.584Z" fill="white"/>
<path d="M26.9116 30.4009C26.404 30.9085 26.1557 31.6056 26.2126 32.3637C26.2664 33.0809 26.5914 33.7713 27.1276 34.3075C27.6639 34.8439 28.3543 35.1689 29.0716 35.2226C29.1426 35.2279 29.2133 35.2306 29.2832 35.2306C29.9588 35.2306 30.5743 34.9835 31.0343 34.5235C31.542 34.0159 31.7902 33.3189 31.7334 32.5608C31.6796 31.8435 31.3546 31.1531 30.8183 30.6168C30.282 30.0805 29.5917 29.7555 28.8744 29.7018C28.1157 29.6446 27.4191 29.8933 26.9116 30.4009ZM29.7937 31.6415C30.0848 31.9327 30.2606 32.2977 30.2884 32.6692C30.3133 32.9997 30.2142 33.2944 30.0096 33.499C29.8051 33.7035 29.5101 33.8022 29.1799 33.7777C28.8084 33.7499 28.4434 33.5742 28.1522 33.283C27.8611 32.9918 27.6853 32.6269 27.6575 32.2555C27.6327 31.9249 27.7317 31.6302 27.9363 31.4256C28.1202 31.2417 28.3769 31.1432 28.6673 31.1432C28.6998 31.1432 28.7328 31.1444 28.7661 31.1469C29.1376 31.1746 29.5025 31.3503 29.7937 31.6415C29.7936 31.6415 29.7936 31.6415 29.7937 31.6415Z" fill="white"/>
<path d="M38.2728 36.071C38.9485 36.071 39.564 35.8239 40.024 35.364C41.0414 34.3465 40.9446 32.594 39.808 31.4572C39.808 31.4572 39.808 31.4572 39.8079 31.4572C38.6714 30.3206 36.9189 30.2238 35.9013 31.2412C34.8838 32.2587 34.9807 34.0113 36.1173 35.1479C36.6536 35.6842 37.344 36.0092 38.0613 36.0629C38.1325 36.0684 38.203 36.071 38.2728 36.071ZM36.926 32.2659C37.1179 32.074 37.3782 31.981 37.658 31.981C38.038 31.981 38.4541 32.1528 38.7833 32.482C39.355 33.0536 39.4519 33.8869 38.9993 34.3395C38.7948 34.5439 38.4999 34.6429 38.1696 34.6182C37.7981 34.5904 37.433 34.4147 37.1419 34.1235C36.5703 33.5517 36.4735 32.7185 36.926 32.2659Z" fill="white"/>
</g>
<defs>
<clipPath id="clip0_122611_1489">
<rect width="50" height="50" fill="white"/>
</clipPath>
</defs>
</svg>
