<svg width="20" height="20" viewBox="0 0 20 20" fill="none" xmlns="http://www.w3.org/2000/svg">
<path d="M10 20C11.3132 20 12.6136 19.7413 13.8268 19.2388C15.0401 18.7362 16.1425 17.9997 17.0711 17.0711C17.9997 16.1425 18.7362 15.0401 19.2388 13.8268C19.7413 12.6136 20 11.3132 20 10C20 8.68678 19.7413 7.38642 19.2388 6.17317C18.7362 4.95991 17.9997 3.85752 17.0711 2.92893C16.1425 2.00035 15.0401 1.26375 13.8268 0.761205C12.6136 0.258658 11.3132 -1.95685e-08 10 0C7.34784 3.95203e-08 4.8043 1.05357 2.92893 2.92893C1.05357 4.8043 0 7.34784 0 10C0 12.6522 1.05357 15.1957 2.92893 17.0711C4.8043 18.9464 7.34784 20 10 20Z" fill="#F4FCF4"/>
<path d="M14.7601 6.66663C14.6975 6.59569 14.6206 6.53888 14.5344 6.49996C14.4482 6.46104 14.3547 6.44092 14.2601 6.44092C14.1655 6.44092 14.072 6.46104 13.9858 6.49996C13.8996 6.53888 13.8227 6.59569 13.7601 6.66663L8.59344 11.8333L6.42678 9.66663C6.37507 9.55836 6.29814 9.46407 6.20244 9.39169C6.10675 9.31931 5.99508 9.27094 5.87683 9.25065C5.75857 9.23036 5.63717 9.23874 5.52282 9.27508C5.40847 9.31143 5.30451 9.37468 5.21967 9.45952C5.13483 9.54436 5.07158 9.64832 5.03523 9.76267C4.99889 9.87702 4.99051 9.99842 5.0108 10.1167C5.03109 10.2349 5.07946 10.3466 5.15184 10.4423C5.22422 10.538 5.31851 10.6149 5.42678 10.6666L8.09344 13.3333C8.156 13.4042 8.23294 13.461 8.31915 13.5C8.40536 13.5389 8.49886 13.559 8.59344 13.559C8.68803 13.559 8.78153 13.5389 8.86773 13.5C8.95394 13.461 9.03088 13.4042 9.09344 13.3333L14.7601 7.66663C14.831 7.60407 14.8879 7.52713 14.9268 7.44092C14.9657 7.35471 14.9858 7.26121 14.9858 7.16663C14.9858 7.07204 14.9657 6.97854 14.9268 6.89233C14.8879 6.80613 14.831 6.72919 14.7601 6.66663Z" fill="#3FCC1B"/>
</svg>
