<svg width="50" height="50" viewBox="0 0 50 50" fill="none" xmlns="http://www.w3.org/2000/svg">
<g clip-path="url(#clip0_122611_1528)">
<path d="M42.6742 7.32219C34.7068 -0.645135 22.8406 -2.03143 13.5358 2.7774C13.2461 2.9271 13.1326 3.28336 13.2824 3.5731C13.4321 3.86284 13.7883 3.97641 14.0781 3.82653C17.4741 2.07146 21.148 1.18158 24.9979 1.18158C38.1305 1.18158 48.8147 11.8658 48.8147 24.9984C48.8147 27.8904 48.3024 30.716 47.292 33.3969C47.177 33.7021 47.3311 34.0427 47.6363 34.1577C47.9415 34.2726 48.2821 34.1186 48.3971 33.8134C51.7177 25.0029 49.9102 14.5583 42.6742 7.32219Z" fill="white"/>
<path d="M8.79807 7.53945C9.03712 7.31752 9.051 6.94393 8.82907 6.70498C8.60714 6.46602 8.23355 6.45205 7.9946 6.67398C-0.398084 14.465 -2.19409 26.5958 2.65982 36.2306C2.80656 36.5219 3.16155 36.639 3.45286 36.4923C3.74408 36.3455 3.86119 35.9904 3.71455 35.6992C-1.02293 26.2957 1.06754 14.7159 8.79807 7.53945Z" fill="white"/>
<path d="M37.5663 22.0355L34.7063 20.9592C35.5832 20.6749 36.3343 20.3798 36.9237 20.0857C37.3791 19.8585 38.7648 19.1672 38.6214 18.1483L37.8045 12.323C37.6188 10.9988 35.0988 10.7926 33.7483 10.719C29.1675 10.4694 21.9976 11.4755 17.6626 12.9765C15.1701 13.8396 14.0715 14.6843 14.2048 15.635L14.9262 20.7736C12.9196 20.9433 11.1974 21.2082 9.91847 21.5459C8.80538 21.8399 7.32568 22.3497 7.32568 23.3794V29.2618C7.32568 30.4992 9.44361 31.0146 10.7491 31.2905V35.3038C8.84219 35.7793 7.98311 36.3679 7.98311 37.1824L7.98488 43.0877C7.99423 43.2447 8.06578 43.3877 8.176 43.4886C17.9503 52.3891 32.9591 52.1344 42.4314 42.9132C42.5486 42.7991 43.7557 41.155 44.5245 38.9186C46.8567 32.1338 44.0604 24.4727 37.5663 22.0355ZM33.3527 47.3078C31.6777 47.5463 30.1011 47.3854 28.5886 46.8722C27.8491 46.6212 24.6908 45.4173 24.6908 45.4173C18.8765 43.2346 16.1353 36.16 18.5803 29.6467C21.0255 23.1332 27.745 19.6102 33.5594 21.7926C36.3645 22.8456 38.5469 25.0578 39.7044 28.0219C42.2685 34.5882 38.9121 42.5129 32.5157 45.1934C32.215 45.3195 32.0732 45.6654 32.1993 45.9663C32.3254 46.2671 32.6715 46.4087 32.9722 46.2827C35.7206 45.1309 38.0515 43.0438 39.6224 40.3869L42.0904 41.3134C41.9259 41.5815 41.7526 41.8452 41.5692 42.1033C39.1953 44.4044 36.4313 46.1551 33.3527 47.3078ZM9.16401 42.788V38.5335C11.1651 39.4602 15.3734 39.8123 17.576 39.9201C18.3607 41.7908 19.5579 43.4377 21.102 44.6973C18.24 44.7116 12.6266 44.4954 9.95656 43.465C9.68837 43.2459 9.42432 43.02 9.16401 42.788ZM42.6712 40.27L40.1885 39.3381C41.447 36.7694 41.9972 33.8404 41.6465 30.9534C41.9821 31.0794 42.0767 31.1291 42.2213 31.1291C42.4602 31.1291 42.6852 30.9829 42.7742 30.7459C42.8888 30.4405 42.7342 30.1001 42.4289 29.9856L41.4156 29.6052C40.9317 27.4278 39.9322 25.3824 38.443 23.734C43.9612 26.7484 45.7109 34.2147 42.6712 40.27ZM18.3909 13.9772C22.4977 12.6286 28.9985 11.7157 33.3234 11.8815C35.5688 11.9678 36.4156 12.3195 36.6119 12.4903C36.4703 12.7087 35.7529 13.2797 33.6181 13.9808C29.5106 15.3296 23.0057 16.2429 18.6855 16.0764C16.4402 15.9901 15.5934 15.6386 15.397 15.4676C15.5387 15.2493 16.256 14.6783 18.3909 13.9772ZM15.2101 21.9347C15.6393 22.545 16.7724 22.9006 18.701 23.0406C19.0262 23.0642 19.3091 22.8197 19.3327 22.4944C19.3563 22.1691 19.1118 21.8863 18.7865 21.8626C16.9477 21.7292 16.3012 21.3987 16.1879 21.2665L15.5658 16.8356C16.5244 17.1414 17.8586 17.2337 18.8682 17.2638L19.2802 20.1991C19.3216 20.4943 19.5744 20.7076 19.8643 20.7076C20.2234 20.7076 20.4996 20.3905 20.4497 20.0349L20.0625 17.2753C25.7062 17.2232 34.0492 15.7021 36.8264 13.8518L37.4477 18.2823C37.3379 18.5297 36.2819 19.3686 32.7415 20.3028C28.0768 19.1368 23.0978 21.0666 19.8884 25.0121C16.9555 25.0022 14.1606 24.8008 11.997 24.4412C9.41714 24.0124 8.71543 23.5359 8.54487 23.3754C8.90704 23.0119 10.8323 22.2886 15.2101 21.9347ZM8.50668 29.2209V24.7228C10.9024 25.8428 16.2888 26.1416 19.0266 26.1851C18.1253 27.5475 17.4134 29.1098 16.9753 30.82C11.2373 30.5421 8.78668 29.6282 8.50668 29.2209ZM11.331 36.3791C11.7536 36.6965 12.3351 36.9107 12.8274 37.0641C13.1388 37.161 13.4698 36.9873 13.5668 36.6759C13.6637 36.3645 13.49 36.0335 13.1786 35.9365C12.8693 35.8402 12.1343 35.5859 11.93 35.3344V31.509C13.314 31.7322 14.9571 31.8972 16.7244 31.9896C16.3221 34.3124 16.4859 36.6212 17.1371 38.7144C11.948 38.4197 9.60816 37.5978 9.202 37.1863C9.33821 37.0583 9.81563 36.7282 11.331 36.3791ZM12.5452 45.3083C16.2466 45.9138 21.6347 45.9523 22.8053 45.8471C23.934 46.4671 24.9837 46.7898 27.8672 47.8711C28.4417 48.0868 29.0254 48.2543 29.6168 48.3739C23.7276 49.5492 17.645 48.4514 12.5452 45.3083Z" fill="white"/>
<path d="M37.2961 36.6725C37.2961 36.6073 38.8681 33.098 37.4256 29.1411C35.6277 24.2092 30.4112 22.2511 25.8121 24.7815C21.2757 27.2775 19.0507 33.2046 20.8241 38.0693C22.1014 41.573 25.0767 43.5317 28.2736 43.5317C32.0114 43.5317 35.7234 40.862 37.2961 36.6725ZM25.9963 41.9393C24.1253 41.237 22.6825 39.7188 21.9336 37.6648C20.3597 33.3474 22.3552 28.0316 26.3814 25.8163C30.361 23.6266 34.7725 25.312 36.316 29.5456C37.0766 31.6319 37.032 34.0156 36.1905 36.2575C34.4653 40.853 29.8921 43.4016 25.9963 41.9393Z" fill="white"/>
<path d="M32.3989 29.2918L31.4972 28.9658L32.0573 27.4738C32.172 27.1684 32.0174 26.828 31.7121 26.7135C31.4067 26.5989 31.0664 26.7534 30.9517 27.0587L30.366 28.6188C29.1726 28.4506 27.9349 29.1112 27.4734 30.3398C26.9498 31.7337 27.6539 33.2853 29.0477 33.8089C29.8307 34.1031 30.2258 34.9773 29.9332 35.7571C29.6403 36.5377 28.7666 36.935 27.9853 36.642L26.406 36.0363C26.1015 35.9195 25.76 36.0717 25.6433 36.3762C25.5266 36.6807 25.6786 37.0222 25.9832 37.1389L27.0188 37.5362L26.4504 39.0501C26.3358 39.3554 26.4904 39.6958 26.7958 39.8105C27.1011 39.9251 27.4415 39.7704 27.5561 39.4651L28.1459 37.8938C29.3738 38.0647 30.5905 37.3666 31.0389 36.1724C31.5609 34.7819 30.8542 33.2256 29.4636 32.7036C28.6808 32.4097 28.2851 31.5384 28.579 30.7556C28.8727 29.9729 29.744 29.5772 30.5268 29.8709L31.9977 30.4026C32.3042 30.5135 32.6429 30.3547 32.7537 30.048C32.8644 29.7411 32.7057 29.4026 32.3989 29.2918Z" fill="white"/>
</g>
<defs>
<clipPath id="clip0_122611_1528">
<rect width="50" height="50" fill="white"/>
</clipPath>
</defs>
</svg>
