<svg width="50" height="50" viewBox="0 0 50 50" fill="none" xmlns="http://www.w3.org/2000/svg">
<path d="M47.6016 10.8681L11.7899 4.48024C10.2206 4.19798 8.69597 5.29596 8.42379 6.85685L6.11734 20.0883H2.82258C1.26613 20.0883 0 21.3548 0 22.9109V42.7415C0 44.2976 1.26613 45.5641 2.82258 45.5641H39.3496C40.906 45.5641 42.1722 44.2976 42.1722 42.7415V35.7685C43.2185 35.9552 44.2286 36.1754 45.196 35.5968C45.9218 35.1625 46.4423 34.4137 46.5879 33.5794L49.9556 14.2585C50.2327 12.6694 49.1766 11.1484 47.6016 10.8681ZM10.0129 7.13387C10.1339 6.44072 10.8065 5.94274 11.5069 6.06774L47.3185 12.4556C48.0214 12.581 48.4915 13.2653 48.3669 13.981L47.8113 17.1706L9.45564 10.3294L10.0129 7.13387ZM40.5593 42.7415C40.5593 43.4085 40.0165 43.9512 39.3496 43.9512H2.82258C2.15564 43.9512 1.6129 43.4085 1.6129 42.7415V22.9109C1.6129 22.2439 2.15564 21.7012 2.82258 21.7012H39.3496C40.0165 21.7012 40.5593 22.2439 40.5593 22.9109V42.7415ZM44.9992 33.3024C44.7484 34.7367 43.1556 34.3056 42.1722 34.1302V22.9109C42.1722 21.3548 40.906 20.0883 39.3496 20.0883H7.75484L9.17863 11.9181L11.5149 12.3347L47.5339 18.7593L44.9992 33.3024Z" fill="white"/>
<path d="M18.9997 40.727H14.3626C13.9174 40.727 13.5562 40.3657 13.5562 39.9206C13.5562 39.4754 13.9174 39.1141 14.3626 39.1141H18.9997C19.4449 39.1141 19.8062 39.4754 19.8062 39.9206C19.8062 40.3657 19.4453 40.727 18.9997 40.727Z" fill="white"/>
<path d="M10.1901 40.727H5.55303C5.10787 40.727 4.74658 40.3657 4.74658 39.9206C4.74658 39.4754 5.10787 39.1141 5.55303 39.1141H10.1901C10.6353 39.1141 10.9966 39.4754 10.9966 39.9206C10.9966 40.3657 10.6353 40.727 10.1901 40.727Z" fill="white"/>
<path d="M27.8093 40.727H23.1722C22.727 40.727 22.3657 40.3657 22.3657 39.9206C22.3657 39.4754 22.727 39.1141 23.1722 39.1141H27.8093C28.2544 39.1141 28.6157 39.4754 28.6157 39.9206C28.6157 40.3657 28.2548 40.727 27.8093 40.727Z" fill="white"/>
<path d="M36.6193 40.727H31.9822C31.5371 40.727 31.1758 40.3657 31.1758 39.9206C31.1758 39.4754 31.5371 39.1141 31.9822 39.1141H36.6193C37.0645 39.1141 37.4258 39.4754 37.4258 39.9206C37.4258 40.3657 37.0645 40.727 36.6193 40.727Z" fill="white"/>
<path d="M12.2733 36.5431H6.43214C5.32045 36.5431 4.41602 35.6387 4.41602 34.527V32.2108C4.41602 31.0991 5.32045 30.1947 6.43214 30.1947H12.2733C13.385 30.1947 14.2894 31.0991 14.2894 32.2108V34.527C14.2894 35.6382 13.3846 36.5431 12.2733 36.5431ZM6.43214 31.8072C6.20997 31.8072 6.02892 31.9878 6.02892 32.2104V34.5266C6.02892 34.7491 6.20997 34.9298 6.43214 34.9298H12.2733C12.4955 34.9298 12.6765 34.7491 12.6765 34.5266V32.2104C12.6765 31.9878 12.4955 31.8072 12.2733 31.8072H6.43214Z" fill="white"/>
</svg>
