<svg width="16" height="16" viewBox="0 0 16 16" fill="none" xmlns="http://www.w3.org/2000/svg">
<g clip-path="url(#clip0_122602_677)">
<path d="M15.968 4.70404C15.9305 3.8539 15.7932 3.26944 15.5964 2.76299C15.3935 2.22541 15.0813 1.74412 14.6722 1.34401C14.2725 0.937683 13.7885 0.621948 13.2577 0.421957C12.7489 0.22502 12.1681 0.0875415 11.3188 0.0500586C10.4632 0.00940124 10.1916 0 8.02155 0C5.85152 0 5.5799 0.00940124 4.72747 0.0468842C3.87821 0.0843671 3.29435 0.221967 2.78856 0.418783C2.25141 0.621948 1.77062 0.934509 1.37093 1.34401C0.965027 1.74412 0.649742 2.22858 0.449838 2.75994C0.253106 3.26944 0.115771 3.85073 0.0783268 4.70087C0.0377118 5.55736 0.0283203 5.82926 0.0283203 8.00156C0.0283203 10.1739 0.0377118 10.4458 0.0751557 11.2991C0.1126 12.1492 0.250056 12.7337 0.446789 13.2401C0.649742 13.7777 0.965027 14.259 1.37093 14.6591C1.77062 15.0654 2.25459 15.3812 2.78539 15.5812C3.29435 15.7781 3.87504 15.9156 4.72442 15.9531C5.57672 15.9907 5.84847 16 8.0185 16C10.1885 16 10.4602 15.9907 11.3126 15.9531C12.1618 15.9156 12.7457 15.7781 13.2515 15.5812C14.3257 15.1654 15.1749 14.3153 15.5902 13.2401C15.7868 12.7306 15.9243 12.1492 15.9617 11.2991C15.9992 10.4458 16.0086 10.1739 16.0086 8.00156C16.0086 5.82926 16.0054 5.55736 15.968 4.70404ZM14.5286 11.2366C14.4942 12.018 14.3631 12.4399 14.2538 12.7212C13.9853 13.4183 13.4326 13.9715 12.7363 14.2403C12.4553 14.3497 12.0307 14.481 11.2532 14.5153C10.4102 14.5529 10.1573 14.5622 8.02472 14.5622C5.89213 14.5622 5.63612 14.5529 4.79613 14.5153C4.01555 14.481 3.59403 14.3497 3.31302 14.2403C2.96651 14.1121 2.6511 13.909 2.39509 13.6433C2.12969 13.3838 1.92674 13.0713 1.79867 12.7244C1.68939 12.4431 1.55828 12.018 1.524 11.2397C1.48644 10.3958 1.47717 10.1426 1.47717 8.00779C1.47717 5.87297 1.48644 5.6167 1.524 4.77596C1.55828 3.99455 1.68939 3.5726 1.79867 3.29129C1.92674 2.9443 2.12969 2.62869 2.39826 2.37229C2.65732 2.10661 2.96956 1.90345 3.31619 1.77537C3.5972 1.66597 4.02189 1.53472 4.79931 1.50029C5.64234 1.46281 5.8953 1.45341 8.02777 1.45341C10.1635 1.45341 10.4164 1.46281 11.2564 1.50029C12.037 1.53472 12.4585 1.66597 12.7395 1.77537C13.086 1.90345 13.4014 2.10661 13.6574 2.37229C13.9228 2.63174 14.1258 2.9443 14.2538 3.29129C14.3631 3.5726 14.4942 3.99761 14.5286 4.77596C14.5661 5.61987 14.5755 5.87297 14.5755 8.00779C14.5755 10.1426 14.5661 10.3927 14.5286 11.2366Z" fill="white"/>
<path d="M8.02143 3.8916C5.75467 3.8916 3.91553 5.73254 3.91553 8.00178C3.91553 10.271 5.75467 12.112 8.02143 12.112C10.2883 12.112 12.1273 10.271 12.1273 8.00178C12.1273 5.73254 10.2883 3.8916 8.02143 3.8916ZM8.02143 10.6679C6.55087 10.6679 5.35803 9.47399 5.35803 8.00178C5.35803 6.52957 6.55087 5.33561 8.02143 5.33561C9.4921 5.33561 10.6848 6.52957 10.6848 8.00178C10.6848 9.47399 9.4921 10.6679 8.02143 10.6679Z" fill="white"/>
<path d="M13.2483 3.72858C13.2483 4.25847 12.8191 4.68812 12.2896 4.68812C11.7603 4.68812 11.3311 4.25847 11.3311 3.72858C11.3311 3.19857 11.7603 2.76904 12.2896 2.76904C12.8191 2.76904 13.2483 3.19857 13.2483 3.72858Z" fill="white"/>
</g>
<defs>
<clipPath id="clip0_122602_677">
<rect width="15.9834" height="16" fill="white"/>
</clipPath>
</defs>
</svg>
