<svg width="50" height="50" viewBox="0 0 50 50" fill="none" xmlns="http://www.w3.org/2000/svg">
<g clip-path="url(#clip0_122611_1511)">
<path d="M22.1441 13.1672L16.7887 7.81175C15.7977 6.82073 14.1851 6.82073 13.1941 7.81175L11.0748 9.93099C10.0838 10.922 10.0838 12.5346 11.0748 13.5256L16.4302 18.881C16.9258 19.3766 17.5766 19.6243 18.2276 19.6243C18.8784 19.6243 19.5294 19.3764 20.0248 18.881L22.1441 16.7619C23.1351 15.7709 23.1351 14.1583 22.1441 13.1672ZM21.1377 15.7555L19.0185 17.8747C18.8072 18.0859 18.5263 18.2023 18.2276 18.2023C17.9287 18.2023 17.6479 18.0859 17.4366 17.8747L12.0812 12.5193C11.645 12.0832 11.645 11.3735 12.0812 10.9373L14.2004 8.8182C14.4185 8.60013 14.7049 8.49105 14.9914 8.49105C15.2779 8.49105 15.5643 8.60013 15.7823 8.8181L21.1377 14.1736C21.349 14.3849 21.4654 14.6658 21.4654 14.9645C21.4654 15.2633 21.349 15.5442 21.1377 15.7555Z" fill="white"/>
<path d="M15.6543 19.657L10.2989 14.3015C9.30783 13.3105 7.69533 13.3105 6.70431 14.3015L4.58506 16.4207C3.59404 17.4118 3.59404 19.0244 4.58506 20.0154L9.94045 25.3709C10.436 25.8664 11.0868 26.1141 11.7377 26.1141C12.3886 26.1141 13.0396 25.8664 13.5351 25.3709L15.6543 23.2516C16.6454 22.2606 16.6454 20.648 15.6543 19.657ZM14.648 22.2453L12.5287 24.3644C12.0926 24.8006 11.3829 24.8005 10.9468 24.3644L5.59141 19.0089C5.38018 18.7976 5.26378 18.5167 5.26378 18.218C5.26378 17.9193 5.38008 17.6383 5.59141 17.4271L7.71066 15.3078C7.92873 15.0898 8.21515 14.9808 8.50158 14.9808C8.78801 14.9808 9.07443 15.0898 9.2925 15.3078L14.648 20.6633C15.0841 21.0995 15.0841 21.8091 14.648 22.2453Z" fill="white"/>
<path d="M48.5398 16.5203L41.8001 9.7806C40.7876 8.7681 39.387 8.23978 37.9584 8.3303C37.627 8.3514 37.3017 8.40667 36.986 8.49124C35.8314 7.61038 34.4352 6.8054 32.9066 6.15002C30.6338 5.17551 28.3224 4.63878 26.3979 4.63878C26.3976 4.63878 26.3973 4.63878 26.3972 4.63878C26.1313 4.63878 25.8766 4.64992 25.6323 4.67052C25.0661 4.01808 24.2599 3.5796 23.3501 3.49327L16.8487 2.87618C15.1811 2.71788 13.5458 3.30636 12.3616 4.49064L5.55898 11.2933C5.28105 11.5711 5.28105 12.0217 5.55898 12.2997C5.83681 12.5775 6.2874 12.5775 6.56533 12.2997L13.368 5.49699C14.2511 4.61388 15.4707 4.17482 16.7142 4.29298L23.2156 4.91007C24.1842 5.00207 24.9539 5.7718 25.0459 6.74036L25.3943 10.4117C25.3878 10.4058 25.3811 10.3999 25.3745 10.394C25.3154 10.3412 25.257 10.2882 25.2 10.235C25.1498 10.1883 25.1004 10.1414 25.0519 10.0945C25.0292 10.0723 25.0065 10.0502 24.9841 10.028C24.9157 9.96039 24.8485 9.89271 24.7838 9.82474C24.7271 9.76517 24.6729 9.70589 24.6199 9.64671C24.6072 9.63255 24.5946 9.61849 24.5821 9.60443C24.5319 9.54759 24.483 9.49095 24.4361 9.43461C24.4256 9.42201 24.4157 9.40951 24.4053 9.39691C24.3684 9.35189 24.3327 9.30716 24.298 9.26253C24.2836 9.24398 24.2689 9.22533 24.2549 9.20687C24.2172 9.15726 24.1807 9.10785 24.1458 9.05882C24.1285 9.03451 24.112 9.01048 24.0954 8.98636C24.0826 8.96771 24.0703 8.94925 24.0579 8.93079C24.4642 8.0844 24.3195 7.03762 23.6189 6.33703C22.7322 5.45031 21.2893 5.45021 20.4024 6.33703C19.5156 7.22385 19.5156 8.66673 20.4024 9.55355C20.8458 9.99691 21.4283 10.2186 22.0106 10.2186C22.3668 10.2186 22.7226 10.1347 23.0469 9.96888C23.2507 10.2459 23.4858 10.5254 23.7526 10.8058C24.2694 11.349 24.8868 11.8781 25.581 12.3798L25.6629 13.2417C25.7809 14.485 25.3421 15.7047 24.4589 16.588L12.9686 28.0782C12.6745 28.3723 12.2836 28.5342 11.8678 28.5342C11.452 28.5342 11.0611 28.3723 10.767 28.0782L1.87762 19.1888C1.58358 18.8948 1.42166 18.5039 1.42166 18.0881C1.42166 17.6722 1.58358 17.2813 1.87762 16.9873L3.27811 15.5868C3.55604 15.3089 3.55604 14.8584 3.27811 14.5804C3.00028 14.3026 2.54969 14.3026 2.27176 14.5804L0.871366 15.9807C-0.290455 17.1425 -0.290455 19.0331 0.871366 20.195L9.76076 29.0844C10.3236 29.6472 11.0719 29.9572 11.8679 29.9572C12.6639 29.9572 13.4122 29.6473 13.975 29.0844L25.4653 17.5941C26.5899 16.4694 27.176 14.9378 27.0967 13.3585C27.7983 13.7647 28.5486 14.1421 29.335 14.4793C29.7771 14.6689 30.2207 14.8414 30.6627 14.9971L26.6631 20.167C25.2955 21.9346 25.2905 24.3761 26.5598 26.1421L23.2756 29.4264C22.906 29.796 22.7516 30.3414 22.8726 30.8499C22.88 30.8812 22.8706 30.9148 22.8478 30.9376L20.4778 33.3076C20.3833 33.4022 20.3038 33.5102 20.2414 33.6288L18.907 36.1706L16.5121 37.4085C16.2587 37.5396 16.0509 37.7533 15.9269 38.0103L14.9877 39.9578L12.1364 41.7438C11.8371 41.9312 11.6399 42.2396 11.5951 42.5898L11.181 45.826C11.1345 46.1892 11.2564 46.5462 11.5154 46.8051C11.7381 47.0278 12.0333 47.1491 12.3427 47.1491C12.393 47.1491 12.4437 47.1459 12.4946 47.1394L15.7308 46.7253C16.0808 46.6805 16.3891 46.4833 16.5767 46.1841L18.3627 43.3328L20.3101 42.3935C20.5671 42.2696 20.7809 42.0616 20.912 41.8082L22.1499 39.4135L24.6918 38.0791C24.8104 38.0168 24.9185 37.9372 25.0129 37.8427L27.3828 35.4728C27.4059 35.4496 27.4389 35.4403 27.4705 35.448C27.9792 35.5689 28.5246 35.4145 28.894 35.045L32.178 31.761C33.0426 32.3824 34.0686 32.6991 35.0987 32.699C36.1729 32.699 37.2511 32.3556 38.1533 31.6575L41.9597 28.7127C42.2705 28.4722 42.3276 28.0253 42.0872 27.7145C41.8467 27.4037 41.3997 27.3465 41.0889 27.587L37.2825 30.5319C35.8853 31.6128 33.8994 31.5037 32.6276 30.2888C32.6266 30.2878 32.6257 30.2866 32.6247 30.2857L32.5961 30.2586C32.5868 30.2499 32.5774 30.2413 32.5685 30.2322L28.0884 25.7521C28.0795 25.7433 28.071 25.7341 28.0624 25.725L28.0344 25.6954C28.0336 25.6946 28.0328 25.6939 28.032 25.6932C26.817 24.4215 26.7077 22.4353 27.7888 21.038L32.1139 15.4474C33.4335 15.8019 34.7063 15.9907 35.8436 15.9907C35.8438 15.9907 35.8442 15.9907 35.8444 15.9907C36.1825 15.9907 36.5036 15.9737 36.807 15.9405L42.4873 21.6208C42.899 22.0324 43.4397 22.2383 43.9804 22.2383C44.5211 22.2383 45.0619 22.0324 45.4736 21.6208C46.2969 20.7974 46.2969 19.4579 45.4736 18.6345L39.6861 12.847C39.2872 12.4482 38.757 12.2286 38.1929 12.2286C37.6288 12.2286 37.0986 12.4482 36.6997 12.847C36.3009 13.2458 36.0812 13.7761 36.0812 14.3402C36.0812 14.4153 36.0857 14.4897 36.0934 14.5634C36.0116 14.5659 35.9288 14.5675 35.8442 14.5675C35.8439 14.5675 35.8438 14.5675 35.8435 14.5675C34.9922 14.5675 34.05 14.4476 33.0635 14.2199L35.4568 11.1263C36.0828 10.317 37.0275 9.81566 38.0486 9.75082C39.0699 9.68558 40.0703 10.0636 40.7937 10.7871L47.5334 17.5267C48.2568 18.2503 48.6345 19.2508 48.5696 20.2719C48.5048 21.293 48.0034 22.2377 47.1941 22.8637L44.8946 24.6427C44.5837 24.8832 44.5267 25.3301 44.7671 25.6409C45.0076 25.9517 45.4544 26.0087 45.7654 25.7684L48.0649 23.9893C49.1974 23.1132 49.899 21.7911 49.9899 20.3622C50.0809 18.933 49.5523 17.5328 48.5398 16.5203ZM22.0107 8.79632C21.7834 8.79632 21.5696 8.70775 21.4088 8.547C21.248 8.38616 21.1594 8.17239 21.1594 7.94505C21.1594 7.7177 21.248 7.50393 21.4088 7.34319C21.5696 7.18245 21.7834 7.09387 22.0107 7.09387C22.0461 7.09387 22.0809 7.0968 22.1155 7.101C22.0354 7.6096 22.1127 8.15813 22.3408 8.73001C22.2377 8.77337 22.1259 8.79632 22.0107 8.79632ZM27.5191 27.1955L31.1248 30.8012L27.8876 34.0384C27.8648 34.0612 27.831 34.0706 27.7999 34.0632C27.2915 33.9423 26.746 34.0966 26.3763 34.4662L24.0167 36.8259L21.4612 38.1676C21.2193 38.2945 21.0252 38.4899 20.8995 38.7328L19.6625 41.1258L17.7191 42.0632C17.4937 42.1718 17.3043 42.3414 17.1714 42.5536L15.433 45.3288L12.6335 45.687L12.9918 42.8876L15.7668 41.1493C15.9789 41.0165 16.1486 40.8271 16.2574 40.6016L17.1947 38.6582L19.5877 37.421C19.8303 37.2957 20.0257 37.1015 20.1528 36.8596L21.4946 34.3037L23.8541 31.9443C24.2237 31.5747 24.3782 31.0292 24.2572 30.5207C24.2496 30.4889 24.259 30.4561 24.282 30.433L27.5191 27.1955ZM39.5635 14.7371L44.4671 19.6407C44.7356 19.9092 44.7356 20.3459 44.4671 20.6142C44.3371 20.7443 44.1642 20.8159 43.9803 20.8159C43.7964 20.8159 43.6236 20.7443 43.4935 20.6142L38.4203 15.5411C38.8918 15.3381 39.2765 15.0689 39.5635 14.7371ZM37.7061 13.8533C37.8362 13.7232 38.009 13.6516 38.1929 13.6516C38.3147 13.6516 38.4313 13.6836 38.5342 13.7426C38.3338 14.0089 37.9811 14.219 37.5054 14.3602C37.5052 14.3535 37.5044 14.3468 37.5044 14.34C37.5044 14.1561 37.576 13.9833 37.7061 13.8533ZM34.3312 10.2552L31.5836 13.8067C31.025 13.625 30.4601 13.4132 29.8957 13.1712C28.8186 12.7094 27.8174 12.1715 26.9354 11.5875L26.4626 6.60569C26.4449 6.41975 26.4118 6.2384 26.366 6.06213C26.3764 6.06213 26.3866 6.06174 26.3972 6.06174C26.3974 6.06174 26.3975 6.06174 26.3978 6.06174C28.1338 6.06174 30.2462 6.55754 32.3456 7.45784C33.4998 7.95276 34.5676 8.53499 35.4943 9.16771C35.0554 9.46263 34.6615 9.82816 34.3312 10.2552Z" fill="white"/>
</g>
<defs>
<clipPath id="clip0_122611_1511">
<rect width="50" height="50" fill="white"/>
</clipPath>
</defs>
</svg>
