<svg width="14" height="14" viewBox="0 0 14 14" fill="none" xmlns="http://www.w3.org/2000/svg">
<g clip-path="url(#clip0_122602_673)">
<path d="M12.5869 0H1.39854C0.629344 0 0 0.63 0 1.4V12.6C0 13.37 0.629344 14 1.39854 14H12.5869C13.3561 14 13.9854 13.37 13.9854 12.6V1.4C13.9854 0.63 13.3561 0 12.5869 0ZM4.19563 11.9H2.09781V5.6H4.19563V11.9ZM3.14672 4.41C2.44745 4.41 1.88803 3.85 1.88803 3.15C1.88803 2.45 2.44745 1.89 3.14672 1.89C3.84599 1.89 4.40541 2.45 4.40541 3.15C4.40541 3.85 3.84599 4.41 3.14672 4.41ZM11.8876 11.9H9.7898V8.19C9.7898 7.63003 9.30031 7.14 8.7409 7.14C8.18148 7.14 7.69199 7.63003 7.69199 8.19V11.9H5.59417V5.6H7.69199V6.44C8.04162 5.88 8.81082 5.46 9.44017 5.46C10.7688 5.46 11.8876 6.58 11.8876 7.91V11.9Z" fill="white"/>
</g>
<defs>
<clipPath id="clip0_122602_673">
<rect width="13.9854" height="14" fill="white"/>
</clipPath>
</defs>
</svg>
