<svg width="232" height="32" viewBox="0 0 232 32" fill="none" xmlns="http://www.w3.org/2000/svg">
<path d="M42 6.47619H44.7158V18.4968C44.7158 20.4101 45.0692 21.8044 45.7762 22.6795C46.4918 23.5461 47.6255 23.9794 49.1774 23.9794C50.6948 23.9794 51.7681 23.5719 52.3975 22.7568C53.0355 21.9331 53.3545 20.5431 53.3545 18.5869V6.47619H55.734V18.5483C55.734 21.148 55.1952 23.0399 54.1175 24.2239C53.0484 25.408 51.3414 26 48.9963 26C46.6082 26 44.8451 25.3865 43.7071 24.1596C42.569 22.9326 42 21.0365 42 18.471V6.47619Z" fill="white"/>
<path d="M60.5189 25.5238V6.47619H65.4849C67.3989 6.47619 68.8645 6.83655 69.8818 7.55727C70.9078 8.27799 71.4208 9.31617 71.4208 10.6718C71.4208 12.9798 70.1103 14.6229 67.4894 15.601C70.619 16.5534 72.1838 18.2737 72.1838 20.7619C72.1838 22.3063 71.6665 23.4861 70.6319 24.3012C69.5973 25.1163 68.1058 25.5238 66.1574 25.5238H60.5189ZM63.2088 23.5032H63.7649C65.7565 23.5032 67.0454 23.3788 67.6316 23.13C68.7524 22.6581 69.3128 21.7829 69.3128 20.5045C69.3128 19.3719 68.8042 18.4324 67.7868 17.686C66.7695 16.9309 65.4978 16.5534 63.9718 16.5534H63.2088V23.5032ZM63.2088 14.8417H64.0753C65.5237 14.8417 66.6445 14.5328 67.4377 13.9151C68.2395 13.2973 68.6403 12.4264 68.6403 11.3024C68.6403 9.432 67.1833 8.49678 64.2693 8.49678H63.2088V14.8417Z" fill="white"/>
<path d="M75.7531 25.5238V6.47619H86.448V8.49678H78.4688V14.61H85.1548V16.6049H78.4688V23.5032H87.0041V25.5238H75.7531Z" fill="white"/>
<path d="M90.1078 25.5238V6.47619H95.9014C97.7378 6.47619 99.1431 6.87945 100.117 7.68597C101.1 8.49249 101.592 9.66366 101.592 11.1995C101.592 13.7392 100.303 15.541 97.7249 16.6049L104.113 25.5238H100.777L95.3324 17.4672H92.7977V25.5238H90.1078ZM92.7977 15.4466H93.6771C97.0912 15.4466 98.7983 14.1124 98.7983 11.444C98.7983 9.47919 97.3671 8.49678 94.5048 8.49678H92.7977V15.4466Z" fill="white"/>
<path d="M106.984 25.5238V22.3449H110.179V25.5238H106.984Z" fill="white"/>
<path d="M115.248 25.5238V6.47619H119.011L124.314 21.2124L129.771 6.47619H133.133V25.5238H130.599V10.0283L125.322 24.2497H122.697L117.576 9.9897V25.5238H115.248Z" fill="white"/>
<path d="M145.768 26C143.113 26 140.974 25.0862 139.354 23.2587C137.741 21.4226 136.935 18.9987 136.935 15.9871C136.935 12.9584 137.746 10.5388 139.367 8.72844C140.996 6.90948 143.169 6 145.884 6C148.592 6 150.76 6.90519 152.389 8.71557C154.019 10.526 154.834 12.9412 154.834 15.9614C154.834 19.0416 154.019 21.4869 152.389 23.2973C150.76 25.0991 148.553 26 145.768 26ZM145.807 23.9794C147.764 23.9794 149.277 23.2801 150.346 21.8816C151.415 20.4745 151.95 18.4925 151.95 15.9356C151.95 13.456 151.411 11.5169 150.333 10.1184C149.264 8.71986 147.781 8.02059 145.884 8.02059C143.979 8.02059 142.492 8.72415 141.423 10.1313C140.354 11.5298 139.819 13.4775 139.819 15.9743C139.819 18.4625 140.349 20.4187 141.41 21.843C142.47 23.2673 143.936 23.9794 145.807 23.9794Z" fill="white"/>
<path d="M162.399 26C161.114 26 159.472 25.7211 157.472 25.1634V22.4865C159.627 23.4818 161.399 23.9794 162.787 23.9794C163.856 23.9794 164.714 23.7006 165.36 23.1429C166.016 22.5852 166.343 21.8516 166.343 20.9421C166.343 20.1956 166.128 19.5607 165.697 19.0373C165.274 18.5139 164.49 17.9305 163.343 17.287L162.024 16.5277C160.394 15.601 159.243 14.7302 158.571 13.9151C157.907 13.0914 157.575 12.1347 157.575 11.045C157.575 9.57786 158.11 8.37237 159.179 7.42857C160.248 6.47619 161.61 6 163.265 6C164.74 6 166.296 6.24453 167.934 6.73359V9.20463C165.916 8.41527 164.412 8.02059 163.421 8.02059C162.481 8.02059 161.705 8.26941 161.093 8.76705C160.481 9.26469 160.175 9.89103 160.175 10.6461C160.175 11.281 160.399 11.843 160.847 12.332C161.295 12.8211 162.114 13.4045 163.304 14.0824L164.675 14.8546C166.33 15.7898 167.486 16.6735 168.141 17.5058C168.796 18.3381 169.124 19.3376 169.124 20.5045C169.124 22.1604 168.507 23.4903 167.274 24.4942C166.05 25.4981 164.425 26 162.399 26Z" fill="white"/>
<path d="M181.125 26C178.15 26 175.853 25.1334 174.232 23.4003C172.611 21.6585 171.801 19.1961 171.801 16.0129C171.801 12.8383 172.624 10.3758 174.271 8.62548C175.926 6.87516 178.254 6 181.254 6C182.97 6 184.978 6.27885 187.28 6.83655V9.37194C184.659 8.47104 182.638 8.02059 181.215 8.02059C179.137 8.02059 177.53 8.71986 176.392 10.1184C175.253 11.5169 174.684 13.4903 174.684 16.0386C174.684 18.4668 175.292 20.3844 176.508 21.7915C177.724 23.19 179.383 23.8893 181.487 23.8893C183.297 23.8893 185.237 23.3359 187.306 22.2291V24.5457C185.418 25.5152 183.358 26 181.125 26Z" fill="white"/>
<path d="M198.971 26C196.316 26 194.178 25.0862 192.557 23.2587C190.945 21.4226 190.138 18.9987 190.138 15.9871C190.138 12.9584 190.949 10.5388 192.57 8.72844C194.199 6.90948 196.372 6 199.088 6C201.795 6 203.963 6.90519 205.592 8.71557C207.222 10.526 208.037 12.9412 208.037 15.9614C208.037 19.0416 207.222 21.4869 205.592 23.2973C203.963 25.0991 201.756 26 198.971 26ZM199.01 23.9794C200.967 23.9794 202.48 23.2801 203.549 21.8816C204.618 20.4745 205.153 18.4925 205.153 15.9356C205.153 13.456 204.614 11.5169 203.536 10.1184C202.467 8.71986 200.984 8.02059 199.088 8.02059C197.182 8.02059 195.695 8.72415 194.626 10.1313C193.557 11.5298 193.022 13.4775 193.022 15.9743C193.022 18.4625 193.553 20.4187 194.613 21.843C195.673 23.2673 197.139 23.9794 199.01 23.9794Z" fill="white"/>
<path d="M214.335 25.5238L209.407 6.47619H212.02L215.938 21.5212L219.546 6.47619H222.159L225.573 21.3153L229.789 6.47619H232L226.633 25.5238H223.93L220.555 10.8391L217.025 25.5238H214.335Z" fill="white"/>
<path d="M29.0901 0H2.91007C1.30293 0 6.21359e-05 1.30287 0 2.90995L6.25759e-05 29.0899C6.25759e-05 30.6971 1.30293 32 2.91014 32H29.0899C30.6971 32 31.9999 30.6972 32 29.09V2.91007C32 1.30293 30.6971 6.21359e-05 29.0901 0Z" fill="url(#paint0_linear_122625_43)"/>
<path d="M28.9888 1.27379H3.01361C2.05317 1.27379 1.27455 2.0521 1.27393 3.01241V28.9864C1.27393 29.9469 2.05218 30.7255 3.01249 30.7262H28.9865C29.9462 30.7262 30.7244 29.9491 30.7262 28.9899V3.01117C30.7249 2.05223 29.9479 1.27516 28.9888 1.27379ZM29.4214 28.9243C29.4214 29.1988 29.1988 29.4214 28.9243 29.4214H3.07574C2.80123 29.4214 2.57865 29.1988 2.57865 28.9243V3.07573C2.57865 2.80115 2.80123 2.57864 3.07574 2.57864H28.9243C29.1988 2.57864 29.4214 2.80115 29.4214 3.07573V28.9243Z" fill="url(#paint1_linear_122625_43)"/>
<path d="M18.5475 24.7664C22.9902 24.7664 24.7715 22.281 24.7715 19.2778V8.404C24.7715 7.75126 24.3054 7.23374 23.5598 7.23374H17.9469V8.55934C17.9469 9.08489 18.3482 9.72955 19.1275 9.72955H22.3689V18.9672C22.3689 22.1774 19.9456 22.3846 18.4957 22.3846H13.5042C12.0544 22.3846 9.63112 22.1774 9.63112 18.9672V9.72949H14.0531V8.40394C14.0531 7.87833 13.6518 7.23367 12.8725 7.23367H8.44017C7.6946 7.23367 7.22852 7.7512 7.22852 8.40394V19.2777C7.22852 22.2809 9.00977 24.7663 13.4525 24.7663H18.5475V24.7664Z" fill="url(#paint2_linear_122625_43)"/>
<defs>
<linearGradient id="paint0_linear_122625_43" x1="0.852399" y1="0.85243" x2="31.1477" y2="31.1477" gradientUnits="userSpaceOnUse">
<stop stop-color="#464451"/>
<stop offset="0.5" stop-color="#2B2735"/>
<stop offset="1" stop-color="#130B15"/>
</linearGradient>
<linearGradient id="paint1_linear_122625_43" x1="1.78345" y1="1.78341" x2="30.2167" y2="30.2167" gradientUnits="userSpaceOnUse">
<stop stop-color="#FEFEFE"/>
<stop offset="1" stop-color="#97949B"/>
</linearGradient>
<linearGradient id="paint2_linear_122625_43" x1="8.16377" y1="6.96507" x2="23.8363" y2="22.6376" gradientUnits="userSpaceOnUse">
<stop stop-color="#F2F2F2"/>
<stop offset="1" stop-color="#B6B6B6"/>
</linearGradient>
</defs>
</svg>
