<svg width="50" height="50" viewBox="0 0 50 50" fill="none" xmlns="http://www.w3.org/2000/svg">
<g clip-path="url(#clip0_122611_1502)">
<path d="M36.3336 35.3735C35.9293 35.3735 35.6018 35.7011 35.6018 36.1053V44.9458C35.6018 46.9257 33.991 48.5363 32.0111 48.5363H10.8795C8.89954 48.5363 7.28884 46.9257 7.28884 44.9458V5.05427C7.28884 3.07435 8.89964 1.46365 10.8795 1.46365H32.011C33.9909 1.46365 35.6017 3.07435 35.6017 5.05427V9.81933C35.6017 10.2235 35.9292 10.5512 36.3335 10.5512C36.7378 10.5512 37.0653 10.2235 37.0653 9.81933V5.05427C37.0654 2.26729 34.798 0 32.0111 0H10.8795C8.09258 0 5.8252 2.26729 5.8252 5.05427V44.9458C5.8252 47.7327 8.09248 50 10.8795 50H32.011C34.798 50 37.0653 47.7327 37.0653 44.9458V36.1053C37.0654 35.7011 36.7378 35.3735 36.3336 35.3735Z" fill="white"/>
<path d="M33.4065 10.5263C33.8108 10.5263 34.1384 10.1987 34.1384 9.79449V5.05422C34.1384 3.88135 33.1843 2.92725 32.0114 2.92725H29.6062C29.172 2.92725 28.7811 3.20173 28.6335 3.61057L28.5152 3.93853C28.3459 4.40826 27.8966 4.72392 27.3973 4.72392H20.7274C20.3233 4.72392 19.9956 5.05159 19.9956 5.45575C19.9956 5.85991 20.3233 6.18757 20.7274 6.18757H27.3973C28.5116 6.18757 29.5142 5.48326 29.8921 4.4349L29.908 4.39089H32.0114C32.3771 4.39089 32.6747 4.68841 32.6747 5.05422V9.79459C32.6747 10.1988 33.0023 10.5263 33.4065 10.5263Z" fill="white"/>
<path d="M34.7716 11.9092C32.793 11.9092 30.8994 12.5173 29.296 13.6677C28.9677 13.9034 28.8923 14.3606 29.128 14.6889C29.3637 15.0175 29.8211 15.0925 30.1492 14.857C31.5024 13.8861 33.1008 13.3729 34.7716 13.3729C39.1491 13.3729 42.7105 16.9344 42.7105 21.3119C42.7105 24.3055 38.621 29.2008 34.7938 32.7838C34.7809 32.7959 34.7622 32.7958 34.7495 32.7838C30.9222 29.2009 26.8327 24.3058 26.8327 21.3119C26.8327 19.7374 27.2929 18.2157 28.1633 16.9112C28.3878 16.5751 28.297 16.1207 27.9609 15.8964C27.6248 15.6719 27.1702 15.7627 26.946 16.0988C25.9144 17.6445 25.3691 19.4472 25.3691 21.3119C25.3691 23.2209 26.5567 25.6863 28.8991 28.6394C30.7009 30.9112 32.7112 32.8805 33.7492 33.8522C34.0359 34.1206 34.4038 34.2549 34.7717 34.2549C35.1396 34.2549 35.5075 34.1206 35.7942 33.8523C36.8322 32.8804 38.8427 30.9109 40.6444 28.6394C42.9867 25.6862 44.1743 23.2208 44.1743 21.3119C44.1742 16.1272 39.9563 11.9092 34.7716 11.9092Z" fill="white"/>
<path d="M40.0282 21.3119C40.0282 18.4136 37.6702 16.0555 34.7719 16.0555C31.8736 16.0555 29.5156 18.4136 29.5156 21.3119C29.5156 24.2102 31.8736 26.5682 34.7719 26.5682C37.6702 26.5682 40.0282 24.2102 40.0282 21.3119ZM30.9793 21.3119C30.9793 19.2206 32.6807 17.5192 34.7719 17.5192C36.8632 17.5192 38.5646 19.2206 38.5646 21.3119C38.5646 23.4032 36.8631 25.1045 34.7719 25.1045C32.6806 25.1045 30.9793 23.4032 30.9793 21.3119Z" fill="white"/>
<path d="M26.4919 27.8683C26.2105 27.5782 25.7473 27.5712 25.4571 27.8527L20.2743 32.8813C20.1109 33.0398 20.0193 33.2613 20.0231 33.4888C20.0269 33.7165 20.1257 33.9347 20.294 34.0875L32.5935 45.2634C32.4807 45.4692 32.2622 45.6091 32.0114 45.6091H29.3465L18.4629 35.7197C18.1404 35.4264 17.6427 35.4345 17.3303 35.7381L10.2166 42.6403V39.2413L15.6985 33.9224C15.9886 33.641 15.9956 33.1776 15.7141 32.8876C15.4326 32.5975 14.9694 32.5905 14.6793 32.872L10.2166 37.2019V5.05425C10.2166 4.68843 10.5141 4.39092 10.8799 4.39092H13.0808L13.0967 4.43502C13.4747 5.48339 14.4773 6.1877 15.5916 6.1877H17.6088C18.0129 6.1877 18.3406 5.86003 18.3406 5.45587C18.3406 5.05171 18.0129 4.72405 17.6088 4.72405H15.5916C15.0922 4.72405 14.6429 4.40848 14.4736 3.93865L14.3554 3.61079C14.2081 3.20205 13.8172 2.92737 13.3826 2.92737H10.8799C9.70703 2.92737 8.75293 3.88147 8.75293 5.05434V44.9459C8.75293 46.1188 9.70703 47.0729 10.8799 47.0729H32.0115C33.1844 47.0729 34.1385 46.1188 34.1385 44.9459V36.1909C34.1385 35.7868 33.8109 35.4591 33.4066 35.4591C33.0024 35.4591 32.6748 35.7868 32.6748 36.1909V43.3597L21.7798 33.46L26.4763 28.9032C26.7664 28.6218 26.7734 28.1584 26.4919 27.8683ZM10.2164 44.9458V44.6796L17.9204 37.2047L27.1699 45.6091H10.8797C10.514 45.609 10.2164 45.3115 10.2164 44.9458Z" fill="white"/>
<path d="M23.4666 24.3455L16.9175 30.6998C16.6274 30.9812 16.6205 31.4446 16.9019 31.7346C17.0454 31.8825 17.2362 31.9568 17.4272 31.9568C17.6107 31.9568 17.7945 31.8881 17.9367 31.7502L24.4858 25.3959C24.7758 25.1145 24.7829 24.6511 24.5014 24.3611C24.2201 24.0711 23.7568 24.064 23.4666 24.3455Z" fill="white"/>
<path d="M16.7303 22.5544C17.1345 22.5544 17.4621 22.2267 17.4621 21.8226V18.2987C18.8579 17.9673 19.8996 16.7112 19.8996 15.2156C19.8996 13.468 18.4779 12.0463 16.7303 12.0463C14.9827 12.0463 13.561 13.468 13.561 15.2156C13.561 16.7112 14.6028 17.9673 15.9985 18.2987V21.8226C15.9985 22.2267 16.3262 22.5544 16.7303 22.5544ZM15.0247 15.2156C15.0247 14.275 15.7899 13.5099 16.7303 13.5099C17.6708 13.5099 18.436 14.275 18.436 15.2156C18.436 16.1561 17.6709 16.9212 16.7303 16.9212C15.7898 16.9212 15.0247 16.1561 15.0247 15.2156Z" fill="white"/>
</g>
<defs>
<clipPath id="clip0_122611_1502">
<rect width="50" height="50" fill="white"/>
</clipPath>
</defs>
</svg>
