<svg width="20" height="20" viewBox="0 0 20 20" fill="none" xmlns="http://www.w3.org/2000/svg">
<g clip-path="url(#clip0_122602_667)">
<path d="M19.9792 3.79875C19.2362 4.125 18.4445 4.34125 17.6191 4.44625C18.4683 3.93875 19.1163 3.14125 19.421 2.18C18.6293 2.6525 17.7553 2.98625 16.8237 3.1725C16.072 2.37125 15.0006 1.875 13.8318 1.875C11.5642 1.875 9.73861 3.7175 9.73861 5.97625C9.73861 6.30125 9.76608 6.61375 9.83351 6.91125C6.4283 6.745 3.41519 5.11125 1.39105 2.6225C1.03767 3.23625 0.830385 3.93875 0.830385 4.695C0.830385 6.115 1.56087 7.37375 2.64974 8.1025C1.99168 8.09 1.3461 7.89875 0.799168 7.5975C0.799168 7.61 0.799168 7.62625 0.799168 7.6425C0.799168 9.635 2.21894 11.29 4.08075 11.6712C3.74735 11.7625 3.38398 11.8062 3.00687 11.8062C2.74464 11.8062 2.47992 11.7913 2.23143 11.7362C2.76212 13.36 4.26805 14.5538 6.05869 14.5925C4.66514 15.6838 2.89573 16.3412 0.980229 16.3412C0.644329 16.3412 0.322164 16.3263 0 16.285C1.81436 17.4563 3.96462 18.125 6.28345 18.125C13.8206 18.125 17.9413 11.875 17.9413 6.4575C17.9413 6.27625 17.9351 6.10125 17.9263 5.9275C18.7392 5.35 19.4223 4.62875 19.9792 3.79875Z" fill="white"/>
</g>
<defs>
<clipPath id="clip0_122602_667">
<rect width="19.9792" height="20" fill="white"/>
</clipPath>
</defs>
</svg>
