<svg width="70" height="70" viewBox="0 0 70 70" fill="none" xmlns="http://www.w3.org/2000/svg">
<path d="M45.8926 41.6973C45.8926 44.4329 44.9688 46.6673 43.1211 48.4004C41.2591 50.1335 38.8743 51 35.9668 51H24.6875V19.998H42.7988V23.4785H28.5547V32.3516H35.9238C38.8457 32.3516 41.2376 33.2181 43.0996 34.9512C44.9616 36.6986 45.8926 38.9473 45.8926 41.6973ZM34.957 47.5195C37.1771 47.5195 38.8958 47.0182 40.1133 46.0156C41.3164 44.9987 41.918 43.5592 41.918 41.6973C41.918 39.821 41.3092 38.3743 40.0918 37.3574C38.8887 36.3405 37.1771 35.832 34.957 35.832H28.5547V47.5195H34.957Z" fill="black"/>
</svg>
