<svg width="70" height="70" viewBox="0 0 70 70" fill="none" xmlns="http://www.w3.org/2000/svg">
<path d="M35.4785 19.4824C39.8757 19.4824 43.3561 20.9219 45.9199 23.8008C48.4837 26.6797 49.7656 30.5827 49.7656 35.5098C49.7656 40.4368 48.4837 44.3327 45.9199 47.1973C43.3561 50.0762 39.8757 51.5156 35.4785 51.5156C31.0814 51.5156 27.6009 50.0762 25.0371 47.1973C22.4733 44.3327 21.1914 40.4368 21.1914 35.5098C21.1914 30.5827 22.4733 26.6797 25.0371 23.8008C27.6009 20.9219 31.0814 19.4824 35.4785 19.4824ZM35.4785 23.0488C32.3132 23.0488 29.7995 24.166 27.9375 26.4004C26.0898 28.6491 25.166 31.6855 25.166 35.5098C25.166 39.3197 26.0898 42.349 27.9375 44.5977C29.7995 46.832 32.3132 47.9492 35.4785 47.9492C38.6439 47.9492 41.1576 46.832 43.0195 44.5977C44.8672 42.349 45.791 39.3197 45.791 35.5098C45.791 31.6855 44.8672 28.6491 43.0195 26.4004C41.1576 24.166 38.6439 23.0488 35.4785 23.0488Z" fill="black"/>
</svg>
