<svg width="70" height="70" viewBox="0 0 70 70" fill="none" xmlns="http://www.w3.org/2000/svg">
<path d="M37.1758 19.998C40.0977 19.998 42.4824 20.9219 44.3301 22.7695C46.1777 24.6172 47.1016 27.0091 47.1016 29.9453C47.1016 32.8815 46.1706 35.2806 44.3086 37.1426C42.4466 39.0046 40.0547 39.9355 37.1328 39.9355H29.334V51H25.4668V19.998H37.1758ZM29.334 36.498H36.166C38.3717 36.498 40.0833 35.918 41.3008 34.7578C42.5182 33.612 43.127 32.0078 43.127 29.9453C43.127 27.8828 42.5254 26.2858 41.3223 25.1543C40.1048 24.0085 38.3861 23.4355 36.166 23.4355H29.334V36.498Z" fill="black"/>
</svg>
