<svg width="70" height="70" viewBox="0 0 70 70" fill="none" xmlns="http://www.w3.org/2000/svg">
<path d="M36.1875 51.5156C31.9049 51.5156 28.5104 50.069 26.0039 47.1758C23.4831 44.2969 22.2227 40.401 22.2227 35.4883C22.2227 30.6185 23.4902 26.737 26.0254 23.8438C28.5605 20.9362 31.9479 19.4824 36.1875 19.4824C39.4818 19.4824 42.2962 20.3848 44.6309 22.1895C46.9512 23.9798 48.3978 26.3646 48.9707 29.3438H45.0176C44.459 27.4245 43.3776 25.8991 41.7734 24.7676C40.1693 23.6217 38.3073 23.0488 36.1875 23.0488C33.1654 23.0488 30.7448 24.1803 28.9258 26.4434C27.1068 28.7064 26.1973 31.7214 26.1973 35.4883C26.1973 39.2982 27.0996 42.3275 28.9043 44.5762C30.709 46.8249 33.1439 47.9492 36.209 47.9492C38.4004 47.9492 40.2695 47.4622 41.8164 46.4883C43.3346 45.5143 44.4017 44.1393 45.0176 42.3633H48.9707C48.2116 45.3138 46.7292 47.5768 44.5234 49.1523C42.3177 50.7279 39.5391 51.5156 36.1875 51.5156Z" fill="black"/>
</svg>
