<svg width="70" height="70" viewBox="0 0 70 70" fill="none" xmlns="http://www.w3.org/2000/svg">
<path d="M24.4941 51V19.998H36.6328C39.2969 19.998 41.4453 20.707 43.0781 22.125C44.7109 23.543 45.5273 25.4121 45.5273 27.7324C45.5273 29.3509 45.0117 30.8118 43.9805 32.1152C42.9349 33.4329 41.6673 34.2279 40.1777 34.5V34.6719C42.2832 34.944 43.9661 35.7676 45.2266 37.1426C46.4727 38.5176 47.0957 40.2363 47.0957 42.2988C47.0957 45.0345 46.1719 47.1686 44.3242 48.7012C42.4622 50.2337 39.8841 51 36.5898 51H24.4941ZM28.3613 33.3613H34.5488C36.8405 33.3613 38.5879 32.9173 39.791 32.0293C41.0085 31.1413 41.6172 29.8594 41.6172 28.1836C41.6172 26.651 41.1087 25.4694 40.0918 24.6387C39.0749 23.8223 37.6283 23.4141 35.752 23.4141H28.3613V33.3613ZM36.0098 47.584C40.7507 47.584 43.1211 45.7578 43.1211 42.1055C43.1211 38.4961 40.6289 36.6914 35.6445 36.6914H28.3613V47.584H36.0098Z" fill="black"/>
</svg>
