<svg width="70" height="70" viewBox="0 0 70 70" fill="none" xmlns="http://www.w3.org/2000/svg">
<path d="M33.5664 26.0566C30.5443 26.1712 28.1523 27.0664 26.3906 28.7422C24.6432 30.4036 23.7695 32.6165 23.7695 35.3809C23.7695 38.1738 24.6432 40.4082 26.3906 42.084C28.1523 43.7454 30.5443 44.6263 33.5664 44.7266V26.0566ZM47.166 35.4023C47.166 32.6237 46.2923 30.3965 44.5449 28.7207C42.7975 27.0449 40.4128 26.1569 37.3906 26.0566V44.7266C40.4128 44.612 42.7975 43.7168 44.5449 42.041C46.2923 40.3796 47.166 38.1667 47.166 35.4023ZM33.5664 48.1855C29.3698 48.0853 26.0326 46.8822 23.5547 44.5762C21.0911 42.2702 19.8594 39.2051 19.8594 35.3809C19.8594 31.571 21.0911 28.5202 23.5547 26.2285C26.0182 23.9225 29.3555 22.7122 33.5664 22.5977V19.5684H37.3906V22.5977C41.5872 22.6979 44.9173 23.901 47.3809 26.207C49.8444 28.513 51.0762 31.5781 51.0762 35.4023C51.0762 39.2122 49.8444 42.263 47.3809 44.5547C44.9173 46.8607 41.5872 48.071 37.3906 48.1855V51.4297H33.5664V48.1855Z" fill="black"/>
</svg>
