<svg width="70" height="70" viewBox="0 0 70 70" fill="none" xmlns="http://www.w3.org/2000/svg">
<path d="M28.582 51V23.4785H21.4922V19.998H32.4492V31.4922H40.0332C42.9551 31.4922 45.347 32.4017 47.209 34.2207C49.071 36.0397 50.002 38.3887 50.002 41.2676C50.002 44.1322 49.0781 46.474 47.2305 48.293C45.3685 50.0977 42.9837 51 40.0762 51H28.582ZM39.0664 47.5195C41.2865 47.5195 43.0052 46.9753 44.2227 45.8867C45.4258 44.7982 46.0273 43.2585 46.0273 41.2676C46.0273 39.2624 45.4186 37.7083 44.2012 36.6055C42.998 35.5169 41.2865 34.9727 39.0664 34.9727H32.4492V47.5195H39.0664Z" fill="black"/>
</svg>
