<svg width="70" height="70" viewBox="0 0 70 70" fill="none" xmlns="http://www.w3.org/2000/svg">
<path d="M25.5742 19.998H29.4414V31.4922H37.0254C39.9473 31.4922 42.3392 32.4017 44.2012 34.2207C46.0632 36.054 46.9941 38.403 46.9941 41.2676C46.9941 44.1322 46.0703 46.4668 44.2227 48.2715C42.375 50.0905 39.9902 51 37.0684 51H25.5742V19.998ZM36.0586 47.5195C38.2786 47.5195 39.9974 46.9753 41.2148 45.8867C42.418 44.7982 43.0195 43.2585 43.0195 41.2676C43.0195 39.2624 42.4108 37.7083 41.1934 36.6055C39.9902 35.5169 38.2786 34.9727 36.0586 34.9727H29.4414V47.5195H36.0586Z" fill="black"/>
</svg>
