<svg width="70" height="70" viewBox="0 0 70 70" fill="none" xmlns="http://www.w3.org/2000/svg">
<path d="M34.8555 51.5156C31.4896 51.5156 28.6966 50.7279 26.4766 49.1523C24.2279 47.5625 22.724 45.2995 21.9648 42.3633H25.918C26.5339 44.1393 27.6224 45.5143 29.1836 46.4883C30.7448 47.4622 32.6283 47.9492 34.834 47.9492C37.7129 47.9492 40.0404 46.9538 41.8164 44.9629C43.6068 42.9577 44.5664 40.265 44.6953 36.8848H30.8809V33.4043H44.6309C44.4017 30.2389 43.3991 27.7181 41.623 25.8418C39.8613 23.9798 37.6055 23.0488 34.8555 23.0488C32.7214 23.0488 30.8379 23.6217 29.2051 24.7676C27.5723 25.9134 26.4766 27.4388 25.918 29.3438H21.9648C22.5378 26.3789 24.0059 23.9941 26.3691 22.1895C28.7181 20.3848 31.5469 19.4824 34.8555 19.4824C39.0951 19.4824 42.4681 20.9362 44.9746 23.8438C47.4668 26.737 48.7129 30.6185 48.7129 35.4883C48.7129 40.401 47.474 44.2969 44.9961 47.1758C42.5039 50.069 39.1237 51.5156 34.8555 51.5156Z" fill="black"/>
</svg>
