<svg width="70" height="70" viewBox="0 0 70 70" fill="none" xmlns="http://www.w3.org/2000/svg">
<path d="M40.8711 51.7305C36.7174 51.7305 33.4017 50.3913 30.9238 47.7129C28.4746 45.0775 27.1283 41.4681 26.8848 36.8848H21.1699V51H17.3027V19.998H21.1699V33.4043H26.9277C27.2858 29.0215 28.6966 25.5697 31.1602 23.0488C33.638 20.528 36.875 19.2676 40.8711 19.2676C45.1966 19.2676 48.6126 20.7285 51.1191 23.6504C53.597 26.5579 54.8359 30.5039 54.8359 35.4883C54.8359 40.4727 53.597 44.4186 51.1191 47.3262C48.627 50.2624 45.2109 51.7305 40.8711 51.7305ZM40.8711 22.834C37.7773 22.834 35.3281 23.9727 33.5234 26.25C31.7188 28.5273 30.8164 31.6068 30.8164 35.4883C30.8164 39.3698 31.7044 42.4421 33.4805 44.7051C35.2708 47.0111 37.7344 48.1641 40.8711 48.1641C43.9648 48.1641 46.4069 47.0111 48.1973 44.7051C49.9733 42.4277 50.8613 39.3555 50.8613 35.4883C50.8613 31.5924 49.9733 28.513 48.1973 26.25C46.4069 23.9727 43.9648 22.834 40.8711 22.834Z" fill="black"/>
</svg>
