<svg width="70" height="70" viewBox="0 0 70 70" fill="none" xmlns="http://www.w3.org/2000/svg">
<path d="M41.7031 23.4785H34.8711C32.651 23.4785 30.9323 24.0013 29.7148 25.0469C28.5117 26.0924 27.9102 27.582 27.9102 29.5156C27.9102 31.4635 28.5189 32.9603 29.7363 34.0059C30.9395 35.0658 32.651 35.5957 34.8711 35.5957H41.7031V23.4785ZM26.9219 51H22.3242L31.2188 38.6035C29.013 38.0879 27.2513 37.0208 25.9336 35.4023C24.6016 33.7695 23.9355 31.8073 23.9355 29.5156C23.9355 26.7083 24.8594 24.4238 26.707 22.6621C28.569 20.8861 30.9538 19.998 33.8613 19.998H45.5703V51H41.7031V39.0762H35.4727L26.9219 51Z" fill="black"/>
</svg>
