<svg width="70" height="70" viewBox="0 0 70 70" fill="none" xmlns="http://www.w3.org/2000/svg">
<path d="M20.2617 19.998H24.1289V31.4922H31.7129C34.6348 31.4922 37.0267 32.4017 38.8887 34.2207C40.7507 36.054 41.6816 38.403 41.6816 41.2676C41.6816 44.1322 40.7578 46.4668 38.9102 48.2715C37.0625 50.0905 34.6777 51 31.7559 51H20.2617V19.998ZM30.7461 47.5195C32.9661 47.5195 34.6849 46.9753 35.9023 45.8867C37.1055 44.7982 37.707 43.2585 37.707 41.2676C37.707 39.2624 37.0983 37.7083 35.8809 36.6055C34.6777 35.5169 32.9661 34.9727 30.7461 34.9727H24.1289V47.5195H30.7461ZM45.8281 51V19.998H49.6953V51H45.8281Z" fill="black"/>
</svg>
