<svg width="70" height="70" viewBox="0 0 70 70" fill="none" xmlns="http://www.w3.org/2000/svg">
<path d="M30.6387 33.4473H34.8281C36.7188 33.4473 38.2656 32.9316 39.4688 31.9004C40.6719 30.8548 41.2734 29.5228 41.2734 27.9043C41.2734 26.3001 40.722 25.0326 39.6191 24.1016C38.5163 23.1706 37.0124 22.7051 35.1074 22.7051C33.1882 22.7051 31.6413 23.1706 30.4668 24.1016C29.278 25.0326 28.6048 26.3145 28.4473 27.9473H24.6875C24.888 25.2546 25.9264 23.1348 27.8027 21.5879C29.6934 20.041 32.1784 19.2676 35.2578 19.2676C38.151 19.2676 40.5358 20.0482 42.4121 21.6094C44.2741 23.1562 45.2051 25.14 45.2051 27.5605C45.2051 29.2793 44.6751 30.8047 43.6152 32.1367C42.541 33.4688 41.1517 34.3424 39.4473 34.7578V34.9297C41.5098 35.2018 43.1354 36.0254 44.3242 37.4004C45.513 38.7897 46.1074 40.5371 46.1074 42.6426C46.1074 45.1921 45.0547 47.3477 42.9492 49.1094C40.8438 50.8568 38.2585 51.7305 35.1934 51.7305C31.9277 51.7305 29.2565 50.9212 27.1797 49.3027C25.1029 47.6986 23.9928 45.5716 23.8496 42.9219H27.5879C27.7598 44.5547 28.5332 45.8581 29.9082 46.832C31.2689 47.806 33.0163 48.293 35.1504 48.293C37.2272 48.293 38.9102 47.763 40.1992 46.7031C41.4883 45.6289 42.1328 44.2396 42.1328 42.5352C42.1328 40.7591 41.5026 39.377 40.2422 38.3887C38.9818 37.3861 37.2344 36.8848 35 36.8848H30.6387V33.4473Z" fill="black"/>
</svg>
