<svg width="70" height="70" viewBox="0 0 70 70" fill="none" xmlns="http://www.w3.org/2000/svg">
<path d="M43.5293 26.3359H43.1855L26.4277 51H22.6035V19.998H26.4277V44.748H26.7715L43.5293 19.998H47.3535V51H43.5293V26.3359ZM30.9395 11.2539C30.9395 12.4714 31.319 13.4883 32.0781 14.3047C32.8372 15.1354 33.7969 15.5508 34.957 15.5508C36.1172 15.5508 37.0768 15.1354 37.8359 14.3047C38.5951 13.4883 38.9746 12.4714 38.9746 11.2539H41.6172C41.6172 13.1445 41.0013 14.6842 39.7695 15.873C38.5234 17.0762 36.9193 17.6777 34.957 17.6777C32.9948 17.6777 31.3906 17.0762 30.1445 15.873C28.9128 14.6842 28.2969 13.1445 28.2969 11.2539H30.9395Z" fill="black"/>
</svg>
