<svg width="150" height="18" viewBox="0 0 150 18" fill="none" xmlns="http://www.w3.org/2000/svg">
<g clip-path="url(#clip0_3448_38168)">
<path d="M14.3428 5.89C16.647 7.19074 16.647 10.4426 14.3428 11.7433L5.27027 16.865C2.96613 18.1657 0.0859375 16.5398 0.0859375 13.9383V3.695C0.0859375 1.09353 2.96613 -0.532393 5.27027 0.768344L14.3428 5.89Z" fill="url(#paint0_linear_3448_38168)"/>
<path d="M25.21 1.98438H28.586V7.18597H29.8648L34.0081 1.98438H37.7422L32.627 8.2613L37.998 15.2384H33.957L29.8648 9.78677H28.586V15.2384H25.21V1.98438Z" fill="black"/>
<path d="M45.3038 15.5379C44.383 15.5379 43.505 15.4045 42.6694 15.1377C41.851 14.8543 41.1349 14.4292 40.521 13.8623C39.9072 13.2955 39.4213 12.5869 39.0632 11.7367C38.7052 10.8864 38.5261 9.88612 38.5261 8.73576V8.23561C38.5261 7.15195 38.7052 6.20166 39.0632 5.38473C39.4213 4.56781 39.9072 3.88427 40.521 3.3341C41.1349 2.78394 41.851 2.37548 42.6694 2.10873C43.505 1.8253 44.383 1.68359 45.3038 1.68359C46.2245 1.68359 47.0941 1.8253 47.9125 2.10873C48.7309 2.37548 49.4471 2.78394 50.0609 3.3341C50.6918 3.88427 51.1862 4.56781 51.5443 5.38473C51.9024 6.20166 52.0814 7.15195 52.0814 8.23561V8.73576C52.0814 9.86944 51.9024 10.8614 51.5443 11.7117C51.1862 12.5619 50.6918 13.2705 50.0609 13.8373C49.4471 14.4042 48.7309 14.8293 47.9125 15.1127C47.0941 15.3961 46.2245 15.5379 45.3038 15.5379ZM45.3038 12.737C46.2587 12.737 47.0516 12.4036 47.6823 11.7367C48.3304 11.0698 48.6542 10.0695 48.6542 8.73576V8.23561C48.6542 7.01856 48.3304 6.09328 47.6823 5.45976C47.0516 4.80956 46.2587 4.48446 45.3038 4.48446C44.3319 4.48446 43.5306 4.80956 42.8996 5.45976C42.2689 6.09328 41.9533 7.01856 41.9533 8.23561V8.73576C41.9533 10.0862 42.2689 11.0948 42.8996 11.7617C43.5306 12.4119 44.3319 12.737 45.3038 12.737Z" fill="black"/>
<path d="M54.501 1.98438H64.2199V4.73522H57.877V15.2384H54.501V1.98438Z" fill="black"/>
<path d="M66.0039 1.98438H69.3799V7.11095H75.1601V1.98438H78.5361V15.2384H75.1601V9.86179H69.3799V15.2384H66.0039V1.98438Z" fill="black"/>
<path d="M87.4963 15.5379C86.5755 15.5379 85.6975 15.4045 84.8619 15.1377C84.0435 14.8543 83.3274 14.4375 82.7135 13.8873C82.0997 13.3205 81.6138 12.612 81.2557 11.7617C80.8977 10.8948 80.7186 9.88612 80.7186 8.73576V8.23561C80.7186 7.13527 80.8892 6.17665 81.2301 5.35973C81.5711 4.5428 82.0401 3.8676 82.6368 3.3341C83.2335 2.78394 83.9241 2.37548 84.7085 2.10873C85.4929 1.8253 86.3369 1.68359 87.2405 1.68359C89.3718 1.68359 90.9917 2.23377 92.0999 3.3341C93.2082 4.43444 93.7624 6.0266 93.7624 8.11057V9.511H84.1714C84.1885 10.0945 84.2908 10.603 84.4783 11.0365C84.6658 11.4533 84.9131 11.795 85.22 12.0618C85.5269 12.3285 85.8765 12.5286 86.2686 12.662C86.6778 12.7787 87.087 12.837 87.4963 12.837C88.3658 12.837 89.0223 12.712 89.4656 12.4619C89.9089 12.2118 90.2244 11.845 90.4119 11.3616H93.5066C93.2337 12.7453 92.5603 13.7873 91.4861 14.4875C90.4119 15.1877 89.082 15.5379 87.4963 15.5379ZM87.3684 4.38443C86.9763 4.38443 86.584 4.43444 86.1919 4.53447C85.8167 4.6345 85.4842 4.79288 85.1944 5.00962C84.9046 5.22636 84.6658 5.5181 84.4783 5.88489C84.2908 6.25167 84.1885 6.69346 84.1714 7.21029H90.4886C90.4715 6.66013 90.3779 6.20166 90.2073 5.83487C90.0538 5.46809 89.8321 5.17634 89.5423 4.9596C89.2695 4.74286 88.9456 4.59282 88.5704 4.50947C88.1953 4.42611 87.7947 4.38443 87.3684 4.38443Z" fill="black"/>
<path d="M98.9884 4.73522H94.666V1.98438H106.687V4.73522H102.364V15.2384H98.9884V4.73522Z" fill="black"/>
<path d="M108.471 1.98438H111.847V10.487L117.883 1.98438H121.003V15.2384H117.627V6.73583L111.591 15.2384H108.471V1.98438Z" fill="black"/>
<path d="M123.825 1.98438H127.201V7.18597H128.48L132.623 1.98438H136.357L131.242 8.2613L136.613 15.2384H132.572L128.48 9.78677H127.201V15.2384H123.825V1.98438Z" fill="black"/>
<path d="M142.098 15.5379C141.364 15.5379 140.716 15.4378 140.154 15.2378C139.591 15.021 139.114 14.7293 138.721 14.3625C138.329 13.979 138.031 13.5372 137.826 13.0371C137.622 12.5203 137.519 11.9618 137.519 11.3616C137.519 8.69408 139.139 7.36034 142.379 7.36034H146.42V6.73515C146.42 5.86821 146.215 5.2597 145.806 4.90959C145.414 4.55948 144.783 4.38443 143.913 4.38443C143.146 4.38443 142.592 4.5178 142.251 4.78455C141.91 5.03463 141.714 5.3514 141.663 5.73484H138.287C138.321 5.168 138.466 4.6345 138.721 4.13435C138.994 3.6342 139.37 3.20907 139.847 2.85896C140.341 2.49217 140.938 2.20876 141.637 2.0087C142.336 1.79196 143.138 1.68359 144.041 1.68359C144.911 1.68359 145.695 1.77529 146.394 1.95868C147.11 2.14207 147.716 2.44216 148.21 2.85896C148.722 3.25908 149.114 3.78424 149.387 4.43444C149.66 5.08464 149.796 5.86821 149.796 6.78516V11.8617C149.796 12.5619 149.805 13.1788 149.821 13.7123C149.856 14.2291 149.907 14.7376 149.975 15.2378H146.829C146.761 14.871 146.718 14.5959 146.701 14.4125C146.701 14.2124 146.701 13.9207 146.701 13.5372C146.326 14.0707 145.755 14.5375 144.988 14.9377C144.237 15.3378 143.274 15.5379 142.098 15.5379ZM143.146 12.9871C143.555 12.9871 143.956 12.9371 144.348 12.837C144.74 12.7203 145.09 12.5536 145.397 12.3369C145.704 12.1035 145.951 11.8117 146.139 11.4616C146.326 11.1115 146.42 10.703 146.42 10.2362V9.61103H143.018C142.37 9.61103 141.859 9.76108 141.484 10.0612C141.126 10.3446 140.947 10.7364 140.947 11.2365C140.947 11.77 141.134 12.1952 141.509 12.5119C141.884 12.8287 142.43 12.9871 143.146 12.9871Z" fill="black"/>
</g>
<defs>
<linearGradient id="paint0_linear_3448_38168" x1="6.56635" y1="-3.85614" x2="6.56635" y2="21.4895" gradientUnits="userSpaceOnUse">
<stop stop-color="#4FACFE"/>
<stop offset="0.427083" stop-color="#45B5FE"/>
<stop offset="1" stop-color="#00F2FE"/>
</linearGradient>
<clipPath id="clip0_3448_38168">
<rect width="150" height="17.235" fill="white" transform="translate(0 0.199219)"/>
</clipPath>
</defs>
</svg>
